<svg width="110" height="85" viewBox="0 0 110 85" fill="none" xmlns="http://www.w3.org/2000/svg">
<path d="M86.078 83.7499H23.3586L36.5631 44.3127H72.8736L86.078 83.7499ZM53.975 37.8626H39.0586V29.7787C39.0586 26.1733 41.882 21.8371 47.2064 20.7991C49.7604 25.2293 53.975 37.8626 53.975 37.8626Z" stroke="white" stroke-width="2" stroke-linecap="round" stroke-linejoin="round"/>
<path d="M54.7183 17.9197C58.867 17.9197 62.2302 14.1321 62.2302 9.45985C62.2302 4.78761 58.867 1 54.7183 1C50.5696 1 47.2064 4.78761 47.2064 9.45985C47.2064 14.1321 50.5696 17.9197 54.7183 17.9197Z" stroke="white" stroke-width="2" stroke-linecap="round" stroke-linejoin="round"/>
<path d="M47.6788 21.6808C49.4139 20.6653 50.6804 19.0087 51.2053 17.0681M55.4617 37.8627H70.378V29.7788C70.378 26.1734 67.5546 21.8372 62.2302 20.7992C59.6762 25.2294 55.4617 37.8627 55.4617 37.8627Z" stroke="white" stroke-width="2" stroke-linecap="round" stroke-linejoin="round"/>
<path d="M61.7579 21.6808C60.0228 20.6653 58.7563 19.0087 58.2314 17.0681M15.9163 66.1936H1V58.1097C1 54.5043 3.82258 50.1681 9.14781 49.1309" stroke="white" stroke-width="2" stroke-linecap="round" stroke-linejoin="round"/>
<path d="M16.6597 46.2506C20.8084 46.2506 24.1716 42.463 24.1716 37.7908C24.1716 33.1185 20.8084 29.3309 16.6597 29.3309C12.511 29.3309 9.14783 33.1185 9.14783 37.7908C9.14783 42.463 12.511 46.2506 16.6597 46.2506Z" stroke="white" stroke-width="2" stroke-linecap="round" stroke-linejoin="round"/>
<path d="M9.61938 50.0116C11.3552 48.9958 12.6221 47.3382 13.1466 45.3966M17.403 66.1935H22.5734M28.8506 51.2772C27.4917 50.1863 25.884 49.449 24.1707 49.1308M23.6991 50.0116C21.9636 48.9957 20.697 47.3381 20.1727 45.3966M93.5204 66.1935H108.437V58.1097C108.437 54.5042 105.614 50.1681 100.289 49.1308" stroke="white" stroke-width="2" stroke-linecap="round" stroke-linejoin="round"/>
<path d="M92.777 46.2506C96.9257 46.2506 100.289 42.463 100.289 37.7908C100.289 33.1185 96.9257 29.3309 92.777 29.3309C88.6283 29.3309 85.2651 33.1185 85.2651 37.7908C85.2651 42.463 88.6283 46.2506 92.777 46.2506Z" stroke="white" stroke-width="2" stroke-linecap="round" stroke-linejoin="round"/>
<path d="M99.8174 50.0116C98.082 48.9964 96.8152 47.3397 96.2901 45.399M92.0337 66.1935H86.8633M80.5862 51.2772C81.945 50.1863 83.5528 49.449 85.266 49.1308M85.7376 50.0116C87.4732 48.9957 88.7397 47.3381 89.2641 45.3966" stroke="white" stroke-width="2" stroke-linecap="round" stroke-linejoin="round"/>
</svg>
