<svg width="116" height="102" viewBox="0 0 116 102" fill="none" xmlns="http://www.w3.org/2000/svg">
<path d="M67.7269 8.84314C61.0646 3.82571 52.7909 1.43107 44.4786 2.11441C36.1663 2.79775 28.3948 6.51141 22.6413 12.5495C16.8878 18.5876 13.5534 26.5293 13.2718 34.8649C12.9903 43.2005 15.7813 51.349 21.1143 57.7615C22.8232 59.8858 30.8524 70.3964 30.8524 79.8301H63.4958C63.4958 71.8653 69.2251 63.1338 72.0341 59.3474" stroke="white" stroke-width="2.08" stroke-miterlimit="10"/>
<path d="M31.5723 85.2843H62.7761" stroke="white" stroke-width="2.08" stroke-miterlimit="10"/>
<path d="M34.4575 90.7561H59.8911" stroke="white" stroke-width="2.08" stroke-miterlimit="10"/>
<path d="M55.4606 96.222C54.5726 97.614 53.3481 98.7598 51.9003 99.5536C50.4525 100.347 48.828 100.763 47.1768 100.763C45.5257 100.763 43.9012 100.347 42.4534 99.5536C41.0055 98.7598 39.7811 97.614 38.8931 96.222H55.4606Z" fill="white" stroke="white" stroke-width="2.08" stroke-miterlimit="10"/>
<path d="M13.2549 36.0265C13.2549 36.0265 6.50737 40.8838 5.15552 43.3183" stroke="white" stroke-width="2.08" stroke-miterlimit="10"/>
<path d="M2.82045 47.3506C2.82045 47.3506 -1.14733 54.1684 8.36831 52.8516" stroke="white" stroke-width="2.08" stroke-miterlimit="10"/>
<path d="M14.7527 52.4126C14.7527 52.4126 17.6788 52.8866 26.3283 50.1361" stroke="white" stroke-width="2.08" stroke-miterlimit="10"/>
<path d="M32.3623 48.3864C35.8605 47.5416 39.2946 46.4504 42.6387 45.1208" stroke="white" stroke-width="2.08" stroke-miterlimit="10"/>
<path d="M48.6724 42.7389C48.6724 42.7389 56.3212 40.2166 59.3175 39.093" stroke="white" stroke-width="2.08" stroke-miterlimit="10"/>
<path d="M62.7759 23.9067L112.168 10.7393L85.7808 37.1794L80.4904 34.1714L71.1562 40.837L72.0984 28.6645L62.7759 23.9067Z" fill="white" stroke="white" stroke-width="2.08" stroke-miterlimit="10"/>
<path d="M72.0985 28.6645L112.168 10.7393L76.6632 31.9359L71.1562 40.837L72.0985 28.6645Z" fill="#1E293B" stroke="white" stroke-width="2.08" stroke-miterlimit="10"/>
</svg>
