<svg width="70" height="102" viewBox="0 0 70 102" fill="none" xmlns="http://www.w3.org/2000/svg">
<path d="M34.9537 23.728C31.1201 23.728 28.0016 26.8466 28.0016 30.6801C28.0016 34.5136 31.1201 37.6322 34.9537 37.6322C38.7872 37.6322 41.9057 34.5136 41.9057 30.6801C41.9057 26.8466 38.787 23.728 34.9537 23.728ZM34.9537 34.4112C32.8963 34.4112 31.2227 32.7376 31.2227 30.6803C31.2227 28.623 32.8963 26.9494 34.9537 26.9494C37.011 26.9494 38.6846 28.623 38.6846 30.6803C38.6846 32.7376 37.011 34.4112 34.9537 34.4112Z" fill="white"/>
<mask id="path-2-inside-1_109_2777" fill="white">
<path d="M61.8608 86.154C58.8365 86.154 56.0897 87.8595 54.7205 90.4915C53.2162 89.7533 51.5625 89.3703 49.8869 89.3719C48.6212 89.3712 47.3649 89.5896 46.1737 90.0174V84.5441C48.2493 84.2082 49.8411 82.4085 49.8411 80.2392C49.8411 77.8582 47.9246 75.9194 45.5537 75.8774L44.422 72.039C46.6916 71.9932 48.5246 70.1363 48.5246 67.8561V67.3648L58.602 71.9046C58.8957 72.0325 59.625 72.3062 60.4721 72.3062C61.0466 72.3062 61.6755 72.1803 62.2592 71.7978C62.9519 71.3436 63.7779 70.382 63.7779 68.3806V51.7335C63.7779 51.3546 63.6444 50.9876 63.4006 50.6977L48.5246 32.984V18.9689C48.5246 16.2601 47.9893 13.6237 46.9622 11.1753C46.9325 11.1042 46.9024 11.0335 46.8719 10.9628C46.8243 10.8518 46.7757 10.7413 46.7259 10.6313C44.7549 6.27021 41.3162 2.77176 36.9697 0.721419C36.9236 0.699704 36.877 0.678587 36.831 0.657271C36.6673 0.581568 36.5021 0.507659 36.3356 0.435941C36.2784 0.411238 36.2218 0.386535 36.1644 0.362231C35.9534 0.273187 35.741 0.187645 35.5271 0.10564C35.1576 -0.0352132 34.7492 -0.0352132 34.3796 0.10564C34.1651 0.187518 33.9529 0.273778 33.7424 0.362231C33.685 0.386336 33.6282 0.411238 33.571 0.435941C33.4049 0.50746 33.2397 0.581369 33.0758 0.657072C33.0294 0.678587 32.9827 0.699903 32.9367 0.721419C28.5904 2.77176 25.1517 6.27021 23.1807 10.6313C23.0991 10.8115 23.0204 10.9929 22.9444 11.1755C21.9176 13.6239 21.3821 16.2601 21.3821 18.9687V32.9836L6.50662 50.6973C6.26296 50.9875 6.12936 51.3542 6.1293 51.7331V68.3802C6.1293 71.2751 7.83998 72.3064 9.44069 72.3064C10.2892 72.3064 11.027 72.0251 11.3241 71.8958L21.3821 67.3646V67.8561C21.3821 70.1363 23.2151 71.9934 25.4848 72.039L24.3531 75.8774C21.9822 75.9198 20.0657 77.8586 20.0657 80.2392C20.0657 82.4085 21.6579 84.2082 23.7335 84.5441V90.0174C22.5423 89.5896 21.286 89.3712 20.0203 89.3719C18.2871 89.3719 16.647 89.7753 15.1867 90.4915C13.8175 87.8593 11.0707 86.154 8.04637 86.154C3.60981 86.154 0 89.7636 0 94.2003C0 95.09 0.721165 95.8108 1.61047 95.8108C2.49977 95.8108 3.22094 95.09 3.22094 94.2003C3.22094 91.5396 5.38543 89.3751 8.04617 89.3751C9.99889 89.3751 11.7564 90.5608 12.5003 92.3486C10.3507 94.3603 9.0038 97.2195 9.0038 100.388C9.0038 100.816 9.17348 101.225 9.4755 101.527C9.77752 101.829 10.1872 101.999 10.6143 101.999C10.8258 101.999 11.0352 101.957 11.2306 101.876C11.426 101.795 11.6036 101.677 11.7531 101.527C11.9027 101.378 12.0213 101.2 12.1022 101.005C12.1831 100.809 12.2248 100.6 12.2247 100.388C12.2247 96.0899 15.7218 92.5928 20.0203 92.5928C24.3188 92.5928 27.8158 96.0899 27.8158 100.388C27.8158 100.816 27.9855 101.225 28.2875 101.527C28.5896 101.829 28.9992 101.999 29.4263 101.999C29.6378 101.999 29.8472 101.957 30.0426 101.876C30.2381 101.795 30.4156 101.677 30.5651 101.527C30.7147 101.378 30.8333 101.2 30.9143 101.005C30.9952 100.809 31.0368 100.6 31.0368 100.388C31.0387 98.7407 30.6687 97.1139 29.9542 95.6291C30.3612 95.2872 30.8021 94.9879 31.2701 94.736C31.3069 94.7189 31.3434 94.7008 31.3784 94.6808C32.47 94.1161 33.687 93.8152 34.9532 93.8152C36.2194 93.8152 37.439 94.1167 38.5319 94.683C38.5634 94.7008 38.5961 94.7165 38.6289 94.7322C39.0996 94.9852 39.543 95.2861 39.9519 95.6301C39.238 97.1148 38.8681 98.7414 38.87 100.389C38.87 101.279 39.5912 101.999 40.4805 101.999C41.3698 101.999 42.0909 101.279 42.0909 100.389C42.0909 96.0903 45.588 92.5932 49.8865 92.5932C54.185 92.5932 57.682 96.0901 57.682 100.389C57.682 100.816 57.8517 101.226 58.1537 101.528C58.4558 101.83 58.8654 101.999 59.2925 101.999C59.504 101.999 59.7134 101.958 59.9088 101.877C60.1042 101.796 60.2818 101.677 60.4313 101.528C60.5809 101.378 60.6995 101.201 60.7804 101.005C60.8614 100.81 60.903 100.6 60.903 100.389C60.903 97.2195 59.5559 94.3605 57.4065 92.349C58.1504 90.5616 59.9077 89.3755 61.8606 89.3755C64.5213 89.3755 66.6858 91.54 66.6858 94.2007C66.6858 94.6278 66.8555 95.0375 67.1575 95.3395C67.4596 95.6415 67.8692 95.8112 68.2963 95.8112C68.5078 95.8112 68.7172 95.7696 68.9126 95.6887C69.108 95.6077 69.2856 95.4891 69.4351 95.3396C69.5847 95.19 69.7033 95.0125 69.7842 94.8171C69.8652 94.6217 69.9068 94.4122 69.9068 94.2007C69.907 89.7636 66.2976 86.154 61.8608 86.154ZM28.8422 72.0434H41.065L42.1945 75.8734H27.7131L28.8422 72.0434ZM45.3035 67.8561C45.3032 68.1123 45.2013 68.3579 45.0201 68.5391C44.8389 68.7203 44.5933 68.8222 44.3371 68.8225H36.5641V61.8435H45.3035V67.8561ZM60.5567 68.3802C60.5567 68.7789 60.5033 68.9904 60.4683 69.0865C60.3306 69.0865 60.0864 69.0375 59.9057 68.9592L48.5246 63.8319V55.3774C48.5246 54.9502 48.355 54.5406 48.0529 54.2386C47.7509 53.9366 47.3413 53.7669 46.9142 53.7669C46.7027 53.7669 46.4932 53.8085 46.2978 53.8894C46.1024 53.9703 45.9249 54.089 45.7753 54.2385C45.6258 54.3881 45.5072 54.5656 45.4262 54.761C45.3453 54.9564 45.3037 55.1659 45.3037 55.3774V58.6226H36.5643V52.1333C36.5643 51.2436 35.8431 50.5228 34.9538 50.5228C34.0645 50.5228 33.3433 51.2436 33.3433 52.1333V58.6226H24.6039V18.9689C24.6039 17.6391 24.7648 16.3324 25.0669 15.07C28.1489 15.677 31.5322 15.9978 34.954 15.9978C38.3757 15.9978 41.7592 15.6772 44.8407 15.07C45.1475 16.347 45.303 17.6556 45.3039 18.9689V50.0073C45.3039 50.4344 45.4736 50.844 45.7756 51.146C46.0776 51.4481 46.4872 51.6177 46.9144 51.6177C47.1259 51.6178 47.3353 51.5761 47.5307 51.4952C47.7261 51.4143 47.9036 51.2956 48.0532 51.1461C48.2028 50.9965 48.3214 50.819 48.4023 50.6236C48.4832 50.4282 48.5249 50.2188 48.5248 50.0073V37.9923L60.5571 52.3198L60.5567 68.3802ZM28.8874 7.72867C28.9259 7.68524 28.9643 7.64161 29.0032 7.59878C29.1939 7.38739 29.3901 7.18107 29.5917 6.98001C29.6459 6.92583 29.6988 6.87065 29.7538 6.81706C30.1173 6.46305 30.4962 6.12518 30.8894 5.80444L30.9107 5.7873C31.7414 5.11238 32.6339 4.51734 33.5764 4.01009C33.7648 3.90893 33.9552 3.81142 34.1474 3.71764C34.1886 3.69752 34.2296 3.6766 34.2711 3.65668C34.4963 3.54839 34.7239 3.44517 34.9538 3.3471C35.1836 3.44517 35.4113 3.54839 35.6365 3.65668C35.6779 3.6766 35.719 3.69752 35.7602 3.71764C35.9525 3.81167 36.1431 3.90889 36.3312 4.01029C36.3636 4.02762 36.3957 4.04515 36.428 4.06268C37.3348 4.5587 38.1946 5.13608 38.9969 5.7877L39.0182 5.80483C39.4113 6.12546 39.7902 6.46326 40.1535 6.81726C40.2087 6.87124 40.2623 6.92682 40.3167 6.98161C40.4179 7.08281 40.5179 7.18521 40.6165 7.2886C40.7137 7.3914 40.8102 7.49519 40.905 7.60018C40.9432 7.64241 40.9807 7.68524 41.0187 7.72768C42.1468 9.00548 43.0787 10.4439 43.7839 11.9957C41.0239 12.5085 38.0086 12.7768 34.9538 12.7768C31.8992 12.7768 28.884 12.5085 26.1237 11.9957C26.8283 10.4442 27.7598 9.00615 28.8874 7.72867ZM10.0206 68.951C9.8961 69.0052 9.63911 69.0857 9.44108 69.0857H9.43849C9.40343 68.989 9.35064 68.7775 9.35064 68.3804V52.3198L21.3825 37.9925V63.8323L10.0206 68.951ZM24.6035 67.8561V61.8435H33.3429V68.8225H25.5697C25.3135 68.8221 25.0679 68.7202 24.8868 68.539C24.7057 68.3579 24.6038 68.1123 24.6035 67.8561ZM23.2871 80.2394C23.2874 79.9359 23.4081 79.6448 23.6227 79.4302C23.8374 79.2156 24.1284 79.0948 24.432 79.0945H45.4756C46.1065 79.0945 46.6201 79.6081 46.6201 80.2394C46.6201 80.8707 46.1065 81.3843 45.4756 81.3843H24.432C24.1284 81.384 23.8374 81.2633 23.6227 81.0486C23.4081 80.834 23.2874 80.543 23.2871 80.2394ZM26.9548 91.836V84.6052H28.9771V92.355C28.6897 92.5416 28.4112 92.7415 28.1424 92.954C27.7744 92.5528 27.3775 92.1791 26.9548 91.836ZM32.198 90.9399V84.6052H37.7094V90.9407C36.809 90.7099 35.8831 90.5933 34.9536 90.5937C34.0242 90.5935 33.0985 90.7098 32.198 90.9399ZM40.9305 92.3548V84.6055H42.9527V91.8364C42.5302 92.1795 42.1334 92.553 41.7654 92.954C41.4965 92.7414 41.2179 92.5415 40.9305 92.3548Z"/>
</mask>
<path d="M61.8608 86.154C58.8365 86.154 56.0897 87.8595 54.7205 90.4915C53.2162 89.7533 51.5625 89.3703 49.8869 89.3719C48.6212 89.3712 47.3649 89.5896 46.1737 90.0174V84.5441C48.2493 84.2082 49.8411 82.4085 49.8411 80.2392C49.8411 77.8582 47.9246 75.9194 45.5537 75.8774L44.422 72.039C46.6916 71.9932 48.5246 70.1363 48.5246 67.8561V67.3648L58.602 71.9046C58.8957 72.0325 59.625 72.3062 60.4721 72.3062C61.0466 72.3062 61.6755 72.1803 62.2592 71.7978C62.9519 71.3436 63.7779 70.382 63.7779 68.3806V51.7335C63.7779 51.3546 63.6444 50.9876 63.4006 50.6977L48.5246 32.984V18.9689C48.5246 16.2601 47.9893 13.6237 46.9622 11.1753C46.9325 11.1042 46.9024 11.0335 46.8719 10.9628C46.8243 10.8518 46.7757 10.7413 46.7259 10.6313C44.7549 6.27021 41.3162 2.77176 36.9697 0.721419C36.9236 0.699704 36.877 0.678587 36.831 0.657271C36.6673 0.581568 36.5021 0.507659 36.3356 0.435941C36.2784 0.411238 36.2218 0.386535 36.1644 0.362231C35.9534 0.273187 35.741 0.187645 35.5271 0.10564C35.1576 -0.0352132 34.7492 -0.0352132 34.3796 0.10564C34.1651 0.187518 33.9529 0.273778 33.7424 0.362231C33.685 0.386336 33.6282 0.411238 33.571 0.435941C33.4049 0.50746 33.2397 0.581369 33.0758 0.657072C33.0294 0.678587 32.9827 0.699903 32.9367 0.721419C28.5904 2.77176 25.1517 6.27021 23.1807 10.6313C23.0991 10.8115 23.0204 10.9929 22.9444 11.1755C21.9176 13.6239 21.3821 16.2601 21.3821 18.9687V32.9836L6.50662 50.6973C6.26296 50.9875 6.12936 51.3542 6.1293 51.7331V68.3802C6.1293 71.2751 7.83998 72.3064 9.44069 72.3064C10.2892 72.3064 11.027 72.0251 11.3241 71.8958L21.3821 67.3646V67.8561C21.3821 70.1363 23.2151 71.9934 25.4848 72.039L24.3531 75.8774C21.9822 75.9198 20.0657 77.8586 20.0657 80.2392C20.0657 82.4085 21.6579 84.2082 23.7335 84.5441V90.0174C22.5423 89.5896 21.286 89.3712 20.0203 89.3719C18.2871 89.3719 16.647 89.7753 15.1867 90.4915C13.8175 87.8593 11.0707 86.154 8.04637 86.154C3.60981 86.154 0 89.7636 0 94.2003C0 95.09 0.721165 95.8108 1.61047 95.8108C2.49977 95.8108 3.22094 95.09 3.22094 94.2003C3.22094 91.5396 5.38543 89.3751 8.04617 89.3751C9.99889 89.3751 11.7564 90.5608 12.5003 92.3486C10.3507 94.3603 9.0038 97.2195 9.0038 100.388C9.0038 100.816 9.17348 101.225 9.4755 101.527C9.77752 101.829 10.1872 101.999 10.6143 101.999C10.8258 101.999 11.0352 101.957 11.2306 101.876C11.426 101.795 11.6036 101.677 11.7531 101.527C11.9027 101.378 12.0213 101.2 12.1022 101.005C12.1831 100.809 12.2248 100.6 12.2247 100.388C12.2247 96.0899 15.7218 92.5928 20.0203 92.5928C24.3188 92.5928 27.8158 96.0899 27.8158 100.388C27.8158 100.816 27.9855 101.225 28.2875 101.527C28.5896 101.829 28.9992 101.999 29.4263 101.999C29.6378 101.999 29.8472 101.957 30.0426 101.876C30.2381 101.795 30.4156 101.677 30.5651 101.527C30.7147 101.378 30.8333 101.2 30.9143 101.005C30.9952 100.809 31.0368 100.6 31.0368 100.388C31.0387 98.7407 30.6687 97.1139 29.9542 95.6291C30.3612 95.2872 30.8021 94.9879 31.2701 94.736C31.3069 94.7189 31.3434 94.7008 31.3784 94.6808C32.47 94.1161 33.687 93.8152 34.9532 93.8152C36.2194 93.8152 37.439 94.1167 38.5319 94.683C38.5634 94.7008 38.5961 94.7165 38.6289 94.7322C39.0996 94.9852 39.543 95.2861 39.9519 95.6301C39.238 97.1148 38.8681 98.7414 38.87 100.389C38.87 101.279 39.5912 101.999 40.4805 101.999C41.3698 101.999 42.0909 101.279 42.0909 100.389C42.0909 96.0903 45.588 92.5932 49.8865 92.5932C54.185 92.5932 57.682 96.0901 57.682 100.389C57.682 100.816 57.8517 101.226 58.1537 101.528C58.4558 101.83 58.8654 101.999 59.2925 101.999C59.504 101.999 59.7134 101.958 59.9088 101.877C60.1042 101.796 60.2818 101.677 60.4313 101.528C60.5809 101.378 60.6995 101.201 60.7804 101.005C60.8614 100.81 60.903 100.6 60.903 100.389C60.903 97.2195 59.5559 94.3605 57.4065 92.349C58.1504 90.5616 59.9077 89.3755 61.8606 89.3755C64.5213 89.3755 66.6858 91.54 66.6858 94.2007C66.6858 94.6278 66.8555 95.0375 67.1575 95.3395C67.4596 95.6415 67.8692 95.8112 68.2963 95.8112C68.5078 95.8112 68.7172 95.7696 68.9126 95.6887C69.108 95.6077 69.2856 95.4891 69.4351 95.3396C69.5847 95.19 69.7033 95.0125 69.7842 94.8171C69.8652 94.6217 69.9068 94.4122 69.9068 94.2007C69.907 89.7636 66.2976 86.154 61.8608 86.154ZM28.8422 72.0434H41.065L42.1945 75.8734H27.7131L28.8422 72.0434ZM45.3035 67.8561C45.3032 68.1123 45.2013 68.3579 45.0201 68.5391C44.8389 68.7203 44.5933 68.8222 44.3371 68.8225H36.5641V61.8435H45.3035V67.8561ZM60.5567 68.3802C60.5567 68.7789 60.5033 68.9904 60.4683 69.0865C60.3306 69.0865 60.0864 69.0375 59.9057 68.9592L48.5246 63.8319V55.3774C48.5246 54.9502 48.355 54.5406 48.0529 54.2386C47.7509 53.9366 47.3413 53.7669 46.9142 53.7669C46.7027 53.7669 46.4932 53.8085 46.2978 53.8894C46.1024 53.9703 45.9249 54.089 45.7753 54.2385C45.6258 54.3881 45.5072 54.5656 45.4262 54.761C45.3453 54.9564 45.3037 55.1659 45.3037 55.3774V58.6226H36.5643V52.1333C36.5643 51.2436 35.8431 50.5228 34.9538 50.5228C34.0645 50.5228 33.3433 51.2436 33.3433 52.1333V58.6226H24.6039V18.9689C24.6039 17.6391 24.7648 16.3324 25.0669 15.07C28.1489 15.677 31.5322 15.9978 34.954 15.9978C38.3757 15.9978 41.7592 15.6772 44.8407 15.07C45.1475 16.347 45.303 17.6556 45.3039 18.9689V50.0073C45.3039 50.4344 45.4736 50.844 45.7756 51.146C46.0776 51.4481 46.4872 51.6177 46.9144 51.6177C47.1259 51.6178 47.3353 51.5761 47.5307 51.4952C47.7261 51.4143 47.9036 51.2956 48.0532 51.1461C48.2028 50.9965 48.3214 50.819 48.4023 50.6236C48.4832 50.4282 48.5249 50.2188 48.5248 50.0073V37.9923L60.5571 52.3198L60.5567 68.3802ZM28.8874 7.72867C28.9259 7.68524 28.9643 7.64161 29.0032 7.59878C29.1939 7.38739 29.3901 7.18107 29.5917 6.98001C29.6459 6.92583 29.6988 6.87065 29.7538 6.81706C30.1173 6.46305 30.4962 6.12518 30.8894 5.80444L30.9107 5.7873C31.7414 5.11238 32.6339 4.51734 33.5764 4.01009C33.7648 3.90893 33.9552 3.81142 34.1474 3.71764C34.1886 3.69752 34.2296 3.6766 34.2711 3.65668C34.4963 3.54839 34.7239 3.44517 34.9538 3.3471C35.1836 3.44517 35.4113 3.54839 35.6365 3.65668C35.6779 3.6766 35.719 3.69752 35.7602 3.71764C35.9525 3.81167 36.1431 3.90889 36.3312 4.01029C36.3636 4.02762 36.3957 4.04515 36.428 4.06268C37.3348 4.5587 38.1946 5.13608 38.9969 5.7877L39.0182 5.80483C39.4113 6.12546 39.7902 6.46326 40.1535 6.81726C40.2087 6.87124 40.2623 6.92682 40.3167 6.98161C40.4179 7.08281 40.5179 7.18521 40.6165 7.2886C40.7137 7.3914 40.8102 7.49519 40.905 7.60018C40.9432 7.64241 40.9807 7.68524 41.0187 7.72768C42.1468 9.00548 43.0787 10.4439 43.7839 11.9957C41.0239 12.5085 38.0086 12.7768 34.9538 12.7768C31.8992 12.7768 28.884 12.5085 26.1237 11.9957C26.8283 10.4442 27.7598 9.00615 28.8874 7.72867ZM10.0206 68.951C9.8961 69.0052 9.63911 69.0857 9.44108 69.0857H9.43849C9.40343 68.989 9.35064 68.7775 9.35064 68.3804V52.3198L21.3825 37.9925V63.8323L10.0206 68.951ZM24.6035 67.8561V61.8435H33.3429V68.8225H25.5697C25.3135 68.8221 25.0679 68.7202 24.8868 68.539C24.7057 68.3579 24.6038 68.1123 24.6035 67.8561ZM23.2871 80.2394C23.2874 79.9359 23.4081 79.6448 23.6227 79.4302C23.8374 79.2156 24.1284 79.0948 24.432 79.0945H45.4756C46.1065 79.0945 46.6201 79.6081 46.6201 80.2394C46.6201 80.8707 46.1065 81.3843 45.4756 81.3843H24.432C24.1284 81.384 23.8374 81.2633 23.6227 81.0486C23.4081 80.834 23.2874 80.543 23.2871 80.2394ZM26.9548 91.836V84.6052H28.9771V92.355C28.6897 92.5416 28.4112 92.7415 28.1424 92.954C27.7744 92.5528 27.3775 92.1791 26.9548 91.836ZM32.198 90.9399V84.6052H37.7094V90.9407C36.809 90.7099 35.8831 90.5933 34.9536 90.5937C34.0242 90.5935 33.0985 90.7098 32.198 90.9399ZM40.9305 92.3548V84.6055H42.9527V91.8364C42.5302 92.1795 42.1334 92.553 41.7654 92.954C41.4965 92.7414 41.2179 92.5415 40.9305 92.3548Z" stroke="white" stroke-width="2" mask="url(#path-2-inside-1_109_2777)"/>
<g opacity="0.1">
<path d="M28.1199 67.8561V18.9689C28.1199 12.0485 31.9052 6.01663 37.5171 2.82119C36.6948 2.35265 35.8378 1.94785 34.9536 1.61035C27.9615 4.27627 22.993 11.0401 22.993 18.9689V67.8561C22.993 69.2791 24.1469 70.433 25.5699 70.433H30.6968C29.2736 70.4328 28.1199 69.2791 28.1199 67.8561Z" fill="#231F20"/>
</g>
</svg>
