<svg width="69" height="78" viewBox="0 0 69 78" fill="none" xmlns="http://www.w3.org/2000/svg">
<path fill-rule="evenodd" clip-rule="evenodd" d="M58.4042 34.125C58.4767 30.8935 57.9022 27.6801 56.7143 24.6734C55.5265 21.6668 53.7492 18.9275 51.4869 16.6164C49.2247 14.3053 46.523 12.4691 43.5405 11.2154C40.558 9.96171 37.3548 9.31592 34.119 9.31592C30.8832 9.31592 27.68 9.96171 24.6975 11.2154C21.715 12.4691 19.0133 14.3053 16.751 16.6164C14.4887 18.9275 12.7115 21.6668 11.5236 24.6734C10.3358 27.6801 9.76122 30.8935 9.83374 34.125C9.83374 44.9597 17.2883 53.625 23.8644 61.1813L25.1943 62.7291C24.4407 63.1287 23.81 63.7253 23.3695 64.4551C22.929 65.1849 22.6952 66.0206 22.6931 66.8728V73.3078C22.7028 74.5535 23.2041 75.7451 24.0882 76.6237C24.9723 77.5022 26.1677 77.9968 27.4148 78H40.8354C42.0909 78 43.2949 77.5018 44.1827 76.615C45.0705 75.7282 45.5692 74.5254 45.5692 73.2713V66.8363C45.567 65.9795 45.3306 65.1395 44.8856 64.4071C44.4405 63.6747 43.8036 63.0776 43.0437 62.6803L44.2638 61.1691C50.9253 53.3569 58.4042 44.4966 58.4042 34.125ZM12.2739 34.125C12.205 31.2159 12.7192 28.3225 13.7861 25.6148C14.8529 22.9071 16.451 20.4399 18.4864 18.3581C20.5217 16.2763 22.9531 14.6221 25.6378 13.4927C28.3224 12.3633 31.206 11.7815 34.119 11.7815C37.032 11.7815 39.9156 12.3633 42.6002 13.4927C45.2848 14.6221 47.7163 16.2763 49.7516 18.3581C51.7869 20.4399 53.385 22.9071 54.4519 25.6148C55.5188 28.3225 56.0329 31.2159 55.9641 34.125C55.9641 43.6556 48.7902 52.1503 42.4703 59.6456L40.3596 62.1563H27.9028L25.6945 59.5969C19.094 51.9066 12.2739 44.0091 12.2739 34.125ZM40.8598 75.5625H27.4392C27.1379 75.5625 26.8397 75.5032 26.5614 75.3881C26.2831 75.2729 26.0303 75.1042 25.8173 74.8914C25.6043 74.6787 25.4353 74.4261 25.3201 74.1481C25.2048 73.8701 25.1455 73.5722 25.1455 73.2713V71.2725H43.1535V73.2713C43.1535 73.5722 43.0942 73.8701 42.9789 74.1481C42.8636 74.4261 42.6947 74.6787 42.4817 74.8914C42.2687 75.1042 42.0158 75.2729 41.7376 75.3881C41.4593 75.5032 41.161 75.5625 40.8598 75.5625ZM43.1535 68.835H25.1211V66.8363C25.1338 66.2371 25.3811 65.6667 25.8099 65.2475C26.2387 64.8283 26.8148 64.5936 27.4148 64.5938H40.8354C41.4437 64.5938 42.0271 64.8352 42.4573 65.2649C42.8874 65.6945 43.1291 66.2773 43.1291 66.885L43.1535 68.835Z" fill="#3F3F46"/>
<path fill-rule="evenodd" clip-rule="evenodd" d="M33.9908 51.3337C37.4279 51.336 40.7889 50.3219 43.65 48.4193C46.5112 46.5167 48.7445 43.8106 50.0687 40.6422C51.3928 37.4737 51.7485 33.9846 51.0908 30.6146C50.4332 27.2446 48.7917 24.1444 46.3731 21.7047C43.9546 19.2651 40.8673 17.5951 37.5002 16.9053C34.1332 16.2154 30.637 16.5366 27.4524 17.8283C24.2677 19.12 21.5371 21.3244 19.6046 24.1638C17.672 27.0032 16.6241 30.3504 16.5928 33.7837C16.5736 33.828 16.5638 33.8757 16.5638 33.9239C16.5638 33.9721 16.5736 34.0198 16.5928 34.0641C16.6282 38.6523 18.476 43.041 21.7342 46.2752C24.9925 49.5094 29.3975 51.3275 33.9908 51.3337ZM32.7707 19.0613V21.1453C32.7707 21.4685 32.8993 21.7785 33.1281 22.0071C33.3569 22.2357 33.6672 22.3641 33.9908 22.3641C34.3144 22.3641 34.6247 22.2357 34.8535 22.0071C35.0823 21.7785 35.2109 21.4685 35.2109 21.1453V19.0613C38.7546 19.3417 42.0829 20.8727 44.5999 23.3804C47.1169 25.888 48.6585 29.2086 48.9487 32.7478H46.838C46.5144 32.7478 46.2041 32.8762 45.9753 33.1048C45.7465 33.3333 45.6179 33.6433 45.6179 33.9666C45.6179 34.2898 45.7465 34.5998 45.9753 34.8284C46.2041 35.0569 46.5144 35.1853 46.838 35.1853H48.9487C48.6506 38.7161 47.1072 42.0264 44.5934 44.5263C42.0796 47.0262 38.7589 48.5533 35.2231 48.8353V46.7513C35.2231 46.428 35.0945 46.118 34.8657 45.8895C34.6369 45.6609 34.3266 45.5325 34.003 45.5325C33.6794 45.5325 33.3691 45.6609 33.1403 45.8895C32.9115 46.118 32.7829 46.428 32.7829 46.7513V48.8475C29.2547 48.5447 25.9481 47.0022 23.4507 44.4941C20.9534 41.9861 19.427 38.6748 19.1427 35.1488H21.2168C21.5404 35.1488 21.8507 35.0203 22.0795 34.7918C22.3083 34.5632 22.4369 34.2532 22.4369 33.93C22.4369 33.6068 22.3083 33.2968 22.0795 33.0682C21.8507 32.8397 21.5404 32.7113 21.2168 32.7113H19.1427C19.4392 29.1881 20.9757 25.8839 23.4795 23.385C25.9832 20.8862 29.2924 19.3543 32.8195 19.0613H32.7707ZM34.1616 5.38688C34.4852 5.38688 34.7955 5.25847 35.0243 5.02991C35.2531 4.80135 35.3817 4.49136 35.3817 4.16813V1.21875C35.3817 0.895517 35.2531 0.585524 35.0243 0.356964C34.7955 0.128404 34.4852 0 34.1616 0C33.838 0 33.5277 0.128404 33.2989 0.356964C33.0701 0.585524 32.9415 0.895517 32.9415 1.21875V4.16813C32.9415 4.49136 33.0701 4.80135 33.2989 5.02991C33.5277 5.25847 33.838 5.38688 34.1616 5.38688ZM53.6825 12.4312C53.8431 12.4322 54.0023 12.4014 54.1509 12.3408C54.2996 12.2801 54.4348 12.1908 54.5488 12.0778L56.6107 9.98156C56.7978 9.74794 56.8923 9.45373 56.8763 9.15496C56.8603 8.8562 56.7348 8.57376 56.5238 8.36144C56.3127 8.14913 56.0309 8.02178 55.7319 8.00365C55.433 7.98552 55.1378 8.07787 54.9026 8.26313L52.7919 10.3472C52.6182 10.5191 52.5002 10.7392 52.4533 10.9789C52.4063 11.2185 52.4325 11.4668 52.5285 11.6914C52.6245 11.916 52.7859 12.1067 52.9916 12.2386C53.1974 12.3705 53.4381 12.4376 53.6825 12.4312ZM12.7374 12.4312C12.9797 12.4327 13.217 12.3619 13.4189 12.2281C13.6209 12.0943 13.7784 11.9034 13.8713 11.6799C13.9642 11.4563 13.9884 11.2101 13.9407 10.9728C13.893 10.7354 13.7757 10.5177 13.6036 10.3472L11.5173 8.26313C11.2892 8.0304 10.9779 7.89773 10.6518 7.8943C10.3258 7.89087 10.0117 8.01696 9.77876 8.24484C9.54578 8.47272 9.41297 8.78372 9.40954 9.10942C9.4061 9.43511 9.53233 9.74883 9.76046 9.98156L11.8712 12.0778C11.9852 12.1908 12.1204 12.2801 12.269 12.3408C12.4177 12.4014 12.5768 12.4322 12.7374 12.4312ZM67.0299 31.9313H63.8578C63.5342 31.9313 63.2239 32.0597 62.9951 32.2882C62.7663 32.5168 62.6377 32.8268 62.6377 33.15C62.6377 33.4732 62.7663 33.7832 62.9951 34.0118C63.2239 34.2403 63.5342 34.3688 63.8578 34.3688H67.0299C67.3535 34.3688 67.6638 34.2403 67.8927 34.0118C68.1215 33.7832 68.25 33.4732 68.25 33.15C68.25 32.8268 68.1215 32.5168 67.8927 32.2882C67.6638 32.0597 67.3535 31.9313 67.0299 31.9313ZM4.39221 31.9313H1.22006C0.896478 31.9313 0.586152 32.0597 0.357347 32.2882C0.128541 32.5168 0 32.8268 0 33.15C0 33.4732 0.128541 33.7832 0.357347 34.0118C0.586152 34.2403 0.896478 34.3688 1.22006 34.3688H4.39221C4.71579 34.3688 5.02611 34.2403 5.25492 34.0118C5.48372 33.7832 5.61226 33.4732 5.61226 33.15C5.61226 32.8268 5.48372 32.5168 5.25492 32.2882C5.02611 32.0597 4.71579 31.9313 4.39221 31.9313Z" fill="#3F3F46"/>
<path fill-rule="evenodd" clip-rule="evenodd" d="M32.4535 39.9994L32.8318 40.1091V41.3279C32.8203 41.5104 32.8599 41.6926 32.9461 41.854C33.0323 42.0154 33.1616 42.1497 33.3198 42.2419C33.4818 42.3503 33.6698 42.4137 33.8645 42.4254C34.0592 42.4372 34.2535 42.3969 34.4274 42.3088C34.6014 42.2207 34.7487 42.0879 34.8542 41.924C34.9597 41.7602 35.0197 41.5713 35.0279 41.3766V40.0969L35.3817 39.975C36.0849 39.7505 36.7078 39.3272 37.1752 38.7563C37.5418 38.3914 37.822 37.9492 37.9951 37.462C38.1682 36.9748 38.2299 36.4551 38.1756 35.941C38.0773 35.2273 37.7701 34.5585 37.2925 34.0185C36.815 33.4786 36.1884 33.0917 35.4915 32.9063C35.0889 32.7966 34.674 32.7479 34.2714 32.6504C33.8688 32.5529 32.9172 32.3091 32.6243 31.7729C32.551 31.6383 32.5132 31.4873 32.5145 31.3341C32.5039 31.1489 32.5357 30.9637 32.6076 30.7926C32.6795 30.6215 32.7896 30.4691 32.9294 30.3469C33.1764 30.2039 33.4514 30.1158 33.7356 30.0885C34.0198 30.0611 34.3066 30.0952 34.5764 30.1885C35.0205 30.3 35.4362 30.5035 35.7965 30.7857C35.9867 30.9642 36.2291 31.077 36.4882 31.1078C36.7473 31.1385 37.0095 31.0854 37.2362 30.9563C37.3819 30.8549 37.5012 30.7201 37.584 30.5632C37.6667 30.4063 37.7107 30.2318 37.712 30.0544C37.7026 29.8197 37.6433 29.5896 37.5381 29.3795C37.433 29.1694 37.2843 28.984 37.102 28.8357C36.5976 28.4397 36.0091 28.1646 35.3817 28.0313L34.9913 27.9216V26.4591C34.9984 26.3181 34.9724 26.1773 34.9152 26.0482C34.8579 25.9191 34.7712 25.8052 34.6618 25.7157C34.0884 25.2769 32.7952 25.4354 32.7952 26.3372V27.8607L32.4169 27.9704C31.5516 28.2155 30.8162 28.7884 30.3672 29.5669C29.9037 30.3657 29.7313 31.3002 29.8792 32.2116C29.9176 32.5668 30.0337 32.9091 30.2192 33.2145C30.4047 33.5199 30.6552 33.7808 30.9529 33.9788C31.5765 34.3023 32.2479 34.5245 32.9416 34.6369C33.4004 34.7369 33.8465 34.8882 34.2714 35.0879C34.4861 35.1975 34.6868 35.3326 34.8692 35.49C35.0912 35.6501 35.2615 35.8716 35.3591 36.1271C35.4566 36.3826 35.4772 36.6611 35.4183 36.9282C35.3059 37.203 35.1179 37.4404 34.8761 37.6129C34.6343 37.7855 34.3485 37.8861 34.0518 37.9032C33.6669 37.9282 33.2816 37.8617 32.9274 37.7091C32.5733 37.5566 32.2603 37.3224 32.0143 37.0257C31.7866 36.6863 31.4446 36.4398 31.0505 36.331C30.9048 36.298 30.7539 36.295 30.6071 36.3223C30.4603 36.3495 30.3205 36.4064 30.1964 36.4894C30.0626 36.5808 29.9484 36.698 29.8604 36.834C29.7724 36.97 29.7124 37.1222 29.684 37.2816C29.6589 37.4755 29.6729 37.6725 29.7253 37.8609C29.7777 38.0493 29.8674 38.2253 29.989 38.3785C30.6016 39.1836 31.4711 39.7555 32.4535 39.9994Z" fill="#3F3F46"/>
</svg>
