<svg width="85" height="84" viewBox="0 0 85 84" fill="none" xmlns="http://www.w3.org/2000/svg">
<path d="M41.5926 42.9048C41.8338 43.1433 42.1608 43.2772 42.5018 43.2772C42.8428 43.2772 43.1698 43.1433 43.4109 42.9048L74.4812 12.1726H83.6646C83.8376 12.179 84.0101 12.1507 84.1718 12.0896C84.3336 12.0285 84.4812 11.9358 84.6058 11.817C84.7305 11.6982 84.8296 11.5557 84.8974 11.3981C84.9651 11.2405 85 11.071 85 10.8998C85 10.7285 84.9651 10.5591 84.8974 10.4015C84.8296 10.2439 84.7305 10.1014 84.6058 9.98258C84.4812 9.86376 84.3336 9.77102 84.1718 9.70991C84.0101 9.6488 83.8376 9.62058 83.6646 9.62692H77.0529L84.5755 2.18577C84.6981 2.06837 84.7958 1.92802 84.863 1.7729C84.9302 1.61777 84.9655 1.45097 84.9669 1.28222C84.9683 1.11346 84.9357 0.946121 84.871 0.789947C84.8064 0.633773 84.7109 0.491886 84.5903 0.372554C84.4697 0.253221 84.3262 0.158828 84.1683 0.0948737C84.0104 0.0309195 83.8413 -0.00131736 83.6707 4.12205e-05C83.5001 0.0013998 83.3314 0.0363266 83.1746 0.102787C83.0178 0.169247 82.8759 0.265913 82.7572 0.387151L75.2346 7.82831V1.28646C75.2346 0.948645 75.099 0.624667 74.8575 0.385797C74.616 0.146927 74.2885 0.0127311 73.947 0.0127311C73.6055 0.0127311 73.278 0.146927 73.0365 0.385797C72.795 0.624667 72.6593 0.948645 72.6593 1.28646V10.3723L67.9243 15.0613C61.3639 8.96763 52.7824 5.44927 43.7877 5.16538V1.28646C43.7877 0.948645 43.652 0.624667 43.4105 0.385797C43.169 0.146927 42.8415 0.0127312 42.5 0.0127312C42.1585 0.0127312 41.831 0.146927 41.5895 0.385797C41.348 0.624667 41.2123 0.948645 41.2123 1.28646V5.13563C31.7751 5.46823 22.8159 9.32553 16.1387 15.9307C9.46152 22.536 5.56245 31.3985 5.22668 40.7335H1.33538C1.16238 40.7272 0.989871 40.7554 0.828154 40.8165C0.666436 40.8776 0.518836 40.9703 0.394178 41.0892C0.269519 41.208 0.170362 41.3505 0.102635 41.508C0.0349072 41.6656 0 41.8351 0 42.0064C0 42.1776 0.0349072 42.3471 0.102635 42.5047C0.170362 42.6623 0.269519 42.8047 0.394178 42.9236C0.518836 43.0424 0.666436 43.1351 0.828154 43.1962C0.989871 43.2573 1.16238 43.2856 1.33538 43.2792H5.22668C5.56204 52.6144 9.46097 61.4771 16.1382 68.0824C22.8155 74.6877 31.775 78.5449 41.2123 78.8771V82.7263C41.2123 82.8935 41.2456 83.0592 41.3104 83.2137C41.3751 83.3682 41.4699 83.5087 41.5895 83.6269C41.7091 83.7452 41.851 83.839 42.0072 83.903C42.1635 83.9671 42.3309 84 42.5 84C42.6691 84 42.8365 83.9671 42.9928 83.903C43.149 83.839 43.2909 83.7452 43.4105 83.6269C43.5301 83.5087 43.6249 83.3682 43.6896 83.2137C43.7544 83.0592 43.7877 82.8935 43.7877 82.7263V78.8771C53.225 78.5449 62.1845 74.6877 68.8618 68.0824C75.539 61.4771 79.438 52.6144 79.7733 43.2792H83.6646C83.8376 43.2856 84.0101 43.2573 84.1718 43.1962C84.3336 43.1351 84.4812 43.0424 84.6058 42.9236C84.7305 42.8047 84.8296 42.6623 84.8974 42.5047C84.9651 42.3471 85 42.1776 85 42.0064C85 41.8351 84.9651 41.6656 84.8974 41.508C84.8296 41.3505 84.7305 41.208 84.6058 41.0892C84.4812 40.9703 84.3336 40.8776 84.1718 40.8165C84.0101 40.7554 83.8376 40.7272 83.6646 40.7335H79.7574C79.5348 33.6321 77.2283 26.7481 73.1192 20.9208C73.0235 20.781 72.9008 20.6615 72.758 20.5691C72.6152 20.4767 72.4553 20.4133 72.2876 20.3825C72.1198 20.3518 71.9476 20.3543 71.7808 20.39C71.6141 20.4256 71.4561 20.4937 71.3162 20.5903C71.1763 20.6869 71.0572 20.81 70.9658 20.9525C70.8743 21.0949 70.8125 21.254 70.7837 21.4203C70.755 21.5867 70.7599 21.757 70.7983 21.9215C70.8367 22.0859 70.9077 22.2411 71.0073 22.3782C74.8134 27.779 76.9585 34.1537 77.1838 40.7335H73.3721C73.0391 40.7457 72.7239 40.8852 72.4926 41.1225C72.2614 41.3599 72.1322 41.6767 72.1322 42.0064C72.1322 42.336 72.2614 42.6528 72.4926 42.8902C72.7239 43.1276 73.0391 43.267 73.3721 43.2792H77.1661C76.8341 51.9312 73.2108 60.1399 67.0217 66.2623C60.8326 72.3848 52.5343 75.9692 43.7877 76.2981V72.5452C43.7877 72.3779 43.7544 72.2123 43.6896 72.0578C43.6249 71.9032 43.5301 71.7628 43.4105 71.6445C43.2909 71.5263 43.149 71.4324 42.9928 71.3684C42.8365 71.3044 42.6691 71.2715 42.5 71.2715C42.3309 71.2715 42.1635 71.3044 42.0072 71.3684C41.851 71.4324 41.7091 71.5263 41.5895 71.6445C41.4699 71.7628 41.3751 71.9032 41.3104 72.0578C41.2456 72.2123 41.2123 72.3779 41.2123 72.5452V76.2981C32.4648 75.97 24.1653 72.3857 17.9754 66.2628C11.7855 60.14 8.16203 51.9303 7.83031 43.2775H11.6261C11.9591 43.2653 12.2744 43.1258 12.5056 42.8884C12.7368 42.6511 12.866 42.3343 12.866 42.0046C12.866 41.675 12.7368 41.3582 12.5056 41.1208C12.2744 40.8834 11.9591 40.744 11.6261 40.7318H7.83031C8.16247 32.0792 11.7862 23.87 17.976 17.7475C24.1659 11.625 32.4651 8.04093 41.2123 7.71283V11.4658C41.2123 11.8036 41.348 12.1276 41.5895 12.3664C41.831 12.6053 42.1585 12.7395 42.5 12.7395C42.8415 12.7395 43.169 12.6053 43.4105 12.3664C43.652 12.1276 43.7877 11.8036 43.7877 11.4658V7.71283C52.0991 7.99551 60.0265 11.2433 66.106 16.8564L59.436 23.4595C55.1316 19.6268 49.627 17.3729 43.8434 17.0747C38.0599 16.7766 32.3483 18.4525 27.6645 21.8218C22.9807 25.1911 19.6089 30.0495 18.1133 35.5839C16.6178 41.1183 17.0892 46.9929 19.4488 52.2246C21.8083 57.4563 25.9128 61.7276 31.0754 64.3238C36.2379 66.9199 42.1453 67.6834 47.8088 66.4864C53.4724 65.2894 58.5485 62.2046 62.1877 57.7482C65.8269 53.2918 67.8084 47.7342 67.8005 42.0055C67.8002 37.8388 66.7503 33.7378 64.7458 30.073C64.5816 29.7763 64.305 29.5562 63.9768 29.4612C63.6486 29.3662 63.2956 29.4041 62.9956 29.5665C62.6956 29.7289 62.4732 30.0026 62.3771 30.3273C62.2811 30.6519 62.3194 31.001 62.4836 31.2978C65.2471 36.2766 66.0215 42.0998 64.6537 47.6162C63.2859 53.1325 59.8755 57.9405 55.0966 61.0894C50.3178 64.2382 44.5185 65.4989 38.8453 64.6219C33.1721 63.745 28.038 60.7945 24.4582 56.3536C20.8783 51.9127 19.1132 46.3048 19.5119 40.6386C19.9106 34.9725 22.4441 29.6605 26.6114 25.753C30.7787 21.8456 36.2765 19.627 42.0178 19.536C47.7591 19.445 53.326 21.4882 57.6177 25.2616L50.9477 31.8577C48.516 29.8833 45.4541 28.828 42.3086 28.8802C39.1631 28.9323 36.1387 30.0886 33.7753 32.1424C31.412 34.1964 29.8634 37.0142 29.4061 40.0931C28.9488 43.1719 29.6126 46.3113 31.2788 48.9508C32.9451 51.5903 35.5055 53.5582 38.5029 54.5031C41.5003 55.448 44.7396 55.3085 47.6426 54.1094C50.5457 52.9103 52.9234 50.7297 54.3514 47.9569C55.7794 45.1841 56.1647 41.9995 55.4386 38.9716C55.3998 38.809 55.329 38.6554 55.2302 38.5198C55.1314 38.3842 55.0066 38.2692 54.8629 38.1813C54.7192 38.0934 54.5594 38.0344 54.3926 38.0076C54.2258 37.9808 54.0553 37.9867 53.8909 38.0251C53.7264 38.0635 53.5712 38.1335 53.4341 38.2312C53.2971 38.3289 53.1808 38.4524 53.0919 38.5945C53.003 38.7367 52.9434 38.8948 52.9163 39.0597C52.8892 39.2247 52.8952 39.3933 52.934 39.556C53.4487 41.6994 53.2759 43.9481 52.4396 45.9899C51.6033 48.0317 50.1451 49.7652 48.2673 50.9498C46.3895 52.1343 44.1855 52.7111 41.9612 52.6C39.7369 52.4889 37.6028 51.6954 35.8552 50.3298C34.1077 48.9641 32.8334 47.0941 32.2093 44.9793C31.5852 42.8646 31.6423 40.6101 32.3727 38.5289C33.1031 36.4478 34.4705 34.6432 36.285 33.3659C38.0995 32.0885 40.2711 31.4018 42.4982 31.401C44.898 31.3989 47.2278 32.2006 49.1081 33.6755L41.5891 41.1149C41.3507 41.3533 41.2174 41.6753 41.218 42.0106C41.2187 42.3459 41.3533 42.6673 41.5926 42.9048Z" fill="#3F3F46"/>
</svg>
