<svg width="86" height="84" viewBox="0 0 86 84" fill="none" xmlns="http://www.w3.org/2000/svg">
<path d="M67.9145 47.3382H60.1273C59.4641 43.0519 55.749 39.7597 51.2801 39.7597C46.8113 39.7597 43.0948 43.0519 42.4316 47.3382H36.0173V39.6553C36.0173 39.2912 35.8727 38.942 35.6152 38.6845C35.3577 38.427 35.0085 38.2824 34.6444 38.2824C31.2217 38.2824 28.4374 35.4981 28.4374 32.0768C28.4374 28.6554 31.2217 25.8684 34.643 25.8684C35.0072 25.8684 35.3564 25.7238 35.6138 25.4663C35.8713 25.2088 36.016 24.8596 36.016 24.4955V15.441C36.016 15.0769 35.8713 14.7277 35.6138 14.4702C35.3564 14.2128 35.0072 14.0681 34.643 14.0681H1.37293C1.0088 14.0681 0.659594 14.2128 0.402121 14.4702C0.144647 14.7277 0 15.0769 0 15.441V81.984C0 82.3481 0.144647 82.6973 0.402121 82.9548C0.659594 83.2123 1.0088 83.3569 1.37293 83.3569H67.9145C68.2786 83.3569 68.6278 83.2123 68.8853 82.9548C69.1428 82.6973 69.2874 82.3481 69.2874 81.984V48.7111C69.2874 48.347 69.1428 47.9978 68.8853 47.7403C68.6278 47.4829 68.2786 47.3382 67.9145 47.3382ZM2.74585 16.8126H33.2715V23.2283C28.9838 23.89 25.6916 27.6065 25.6916 32.0754C25.6916 36.5443 28.9838 40.2608 33.2701 40.9239V47.3382H25.5886C25.2245 47.3382 24.8753 47.4829 24.6178 47.7403C24.3603 47.9978 24.2157 48.347 24.2157 48.7111C24.2157 52.1338 21.43 54.9195 18.0087 54.9195C14.5873 54.9195 11.803 52.1338 11.803 48.7111C11.803 48.347 11.6584 47.9978 11.4009 47.7403C11.1434 47.4829 10.7942 47.3382 10.4301 47.3382H2.74585V16.814V16.8126ZM33.2715 72.9282V80.6097H2.74585V50.0841H9.16153C9.82328 54.3717 13.5384 57.664 18.0087 57.664C22.4789 57.664 26.194 54.3717 26.8558 50.0841H33.2715V57.7683C33.2715 58.1325 33.4161 58.4817 33.6736 58.7391C33.9311 58.9966 34.2803 59.1413 34.6444 59.1413C36.2896 59.1434 37.8667 59.7979 39.03 60.9613C40.1933 62.1246 40.8478 63.7017 40.85 65.3469C40.8486 66.9925 40.1944 68.5704 39.031 69.7343C37.8676 70.8982 36.29 71.5531 34.6444 71.5552C34.2803 71.5552 33.9311 71.6999 33.6736 71.9574C33.4161 72.2148 33.2715 72.5641 33.2715 72.9282ZM66.5416 80.6097H36.0173V74.1954C40.3036 73.5323 43.5959 69.8171 43.5959 65.3469C43.5959 60.8766 40.3036 57.1642 36.0173 56.4998V50.0841H43.7002C44.0643 50.0841 44.4135 49.9394 44.671 49.6819C44.9285 49.4245 45.0731 49.0753 45.0731 48.7111C45.0731 45.2898 47.8574 42.5055 51.2788 42.5055C54.7001 42.5055 57.4871 45.2898 57.4871 48.7111C57.4871 49.0753 57.6318 49.4245 57.8893 49.6819C58.1467 49.9394 58.4959 50.0841 58.8601 50.0841H66.5416V80.6097Z" fill="#3F3F46"/>
<path d="M84.2384 11.9788L53.165 0.0892498C52.8248 -0.039571 52.4475 -0.0285693 52.1154 0.119853C51.7833 0.268275 51.5234 0.54206 51.3925 0.881428L48.6096 8.15381C46.752 7.75058 44.8141 7.95414 43.0808 8.73456C42.0054 9.21104 41.0352 9.89615 40.2264 10.7502C39.4176 11.6043 38.7863 12.6103 38.369 13.71C37.9458 14.8072 37.7444 15.9773 37.7765 17.1528C37.8085 18.3283 38.0734 19.4857 38.5557 20.5582C39.326 22.2965 40.6334 23.742 42.2859 24.6825L39.503 31.9548C39.4384 32.1233 39.4077 32.3029 39.4126 32.4832C39.4175 32.6636 39.4579 32.8412 39.5314 33.006C39.605 33.1707 39.7103 33.3193 39.8414 33.4433C39.9724 33.5673 40.1266 33.6643 40.2952 33.7287L48.7524 36.966C49.0925 37.096 49.4703 37.0855 49.8027 36.937C50.1351 36.7884 50.3948 36.5139 50.5248 36.1738C50.814 35.4113 51.2516 34.7137 51.8122 34.1215C52.3729 33.5292 53.0455 33.0541 53.791 32.7237C54.5349 32.3888 55.3378 32.2049 56.1533 32.1828C56.9687 32.1606 57.7804 32.3006 58.5414 32.5946C59.3032 32.8841 60.0001 33.3218 60.5916 33.8825C61.1831 34.4431 61.6576 35.1156 61.9874 35.8608C62.3224 36.6041 62.5066 37.4064 62.5292 38.2214C62.5518 39.0364 62.4125 39.8477 62.1192 40.6084C61.9892 40.9483 61.9994 41.326 62.1477 41.6583C62.296 41.9907 62.5702 42.2506 62.91 42.3808L71.3672 45.6168C71.7076 45.7428 72.0838 45.7306 72.4153 45.5828C72.7467 45.435 73.0072 45.1634 73.141 44.826L85.0306 13.7526C85.0951 13.5841 85.1259 13.4046 85.121 13.2242C85.1161 13.0439 85.0757 12.8662 85.0021 12.7015C84.9286 12.5368 84.8233 12.3881 84.6922 12.2641C84.5612 12.1401 84.407 12.0432 84.2384 11.9788ZM71.0679 42.5621L65.0765 40.2693C65.4786 38.4121 65.2751 36.4749 64.4957 34.7419C64.0193 33.6664 63.3342 32.6962 62.4802 31.8874C61.6261 31.0785 60.62 30.4472 59.5203 30.03C57.5246 29.2708 55.3237 29.2483 53.3129 29.9665C51.3022 30.6847 49.6136 32.0966 48.5506 33.9483L42.5591 31.6556L45.305 24.4793C45.3695 24.3108 45.4003 24.1312 45.3954 23.9509C45.3905 23.7705 45.3501 23.5929 45.2766 23.4282C45.203 23.2634 45.0977 23.1148 44.9666 22.9908C44.8356 22.8668 44.6814 22.7698 44.5128 22.7055C43.7505 22.4162 43.0532 21.9785 42.4612 21.4179C41.8692 20.8572 41.3943 20.1847 41.064 19.4393C40.7293 18.6959 40.5454 17.8935 40.523 17.0785C40.5006 16.2636 40.6402 15.4523 40.9336 14.6917C41.2227 13.9291 41.6603 13.2315 42.221 12.6393C42.7816 12.0471 43.4542 11.572 44.1998 11.2415C44.9432 10.9068 45.7456 10.723 46.5606 10.7009C47.3756 10.6787 48.1869 10.8186 48.9474 11.1125C49.2874 11.2424 49.6652 11.232 49.9976 11.0834C50.33 10.9349 50.5898 10.6604 50.7198 10.3203L53.4657 3.14401L81.9745 14.0533L71.0679 42.5621Z" fill="#3F3F46"/>
</svg>
