<svg width="113" height="113" viewBox="0 0 113 113" fill="none" xmlns="http://www.w3.org/2000/svg">
<path d="M84.164 68.9591C84.7692 68.292 86.2558 66.5079 87.8226 64.6274C89.2641 62.8971 90.7667 61.0942 91.9179 59.8696C90.8403 60.2697 87.9033 61.573 84.8244 65.8551C84.3889 66.4595 83.9562 66.9211 83.5254 67.3805C83.2653 67.6579 83.0059 67.9345 82.8444 68.1266C82.5662 68.4569 82.25 68.7388 81.918 68.9943L81.9206 68.9976C81.6168 69.2311 81.3476 69.411 81.0839 69.5863L81.085 69.5879L81.0279 69.6263C80.4682 70.0039 79.8419 70.4263 78.9542 70.4983H78.9265C75.0992 70.7513 72.5288 71.3868 70.874 71.9919C69.3659 72.5434 68.7236 73.0294 68.5802 73.1408H68.5733C68.5048 73.1936 68.4707 73.2202 68.4555 73.2322L68.4561 73.233C68.4687 73.2236 68.4844 73.2118 68.4562 73.2331C67.5048 73.952 62.3037 77.8831 60.8492 84.2666L60.8515 84.267C60.7736 84.6659 60.6651 85.426 60.6488 86.1372C60.6394 86.5465 60.6565 86.9244 60.7246 87.1522L60.7867 87.4418C60.859 88.0238 60.8649 88.0665 60.8716 88.1161C60.9676 88.8217 61.0641 89.5291 61.0919 90.2948V90.3569L61.0982 93.488L71.762 93.4761V89.9028C71.762 86.726 74.5017 84.4903 75.223 83.9018L75.2236 83.9025L75.2872 83.8504L75.5286 83.6849C75.5656 83.6636 88.4008 76.2797 89.893 74.5158L89.8891 74.5125C90.6202 73.6419 92.3874 70.1121 94.0106 66.5356C95.5915 63.0524 96.9943 59.6565 97.1092 58.804V56.0066H97.1142C96.9937 52.4228 96.542 47.9872 96.5407 47.9743L96.5338 47.9398C96.4893 47.3966 96.4291 46.746 96.3547 46.1674C96.0776 47.0174 95.9288 48.2307 95.777 49.631C95.7321 50.0472 95.682 50.5387 95.6212 51.1325C95.4336 52.968 95.1653 55.5929 95.067 55.9336L91.6875 54.9681C91.6894 54.9615 91.9414 52.497 92.1175 50.7738C92.1924 50.0411 92.2561 49.4187 92.2734 49.2585C92.4495 47.6328 92.6291 46.2071 93.0289 45.0126C93.543 43.4763 94.3799 42.3762 95.8474 41.8581L95.8612 41.8512C96.3874 41.6703 96.8781 41.6191 97.3981 41.7296C97.9409 41.8451 98.3988 42.113 98.8258 42.565L98.8254 42.5654C99.3039 43.0745 99.5911 44.0605 99.7626 45.1479C99.9026 46.0354 99.9941 46.9635 100.051 47.6639L100.048 47.6641C100.091 48.0903 100.517 52.3931 100.634 55.9515L100.641 56.0067V58.8245L100.634 58.9142C100.57 60.0862 98.9948 64.0839 97.2246 67.984C95.4924 71.8005 93.5296 75.659 92.5926 76.7749H92.5858C90.8103 78.8848 78.832 85.837 77.4184 86.6538C76.9351 87.0486 75.2935 88.4149 75.2935 89.9028V96.9897L73.5278 96.9917L59.3431 97.0075L57.5878 97.0095L57.5843 95.2488L57.5745 90.4191H57.5744C57.5536 89.8468 57.4675 89.2151 57.3818 88.5851C57.3417 88.2901 57.3161 88.1128 57.2994 87.9921C57.1567 87.4217 57.116 86.7409 57.1314 86.0683C57.154 85.0803 57.2913 84.0932 57.3893 83.5912L57.403 83.5428C59.1261 75.8646 65.2198 71.2596 66.332 70.4192C66.4859 70.303 66.2301 70.5022 66.4172 70.3579L66.4146 70.3546C66.6372 70.1816 67.6276 69.4298 69.6739 68.6814C71.5694 67.9883 74.4674 67.2635 78.6784 66.9827L78.6783 66.9808C78.7194 66.9775 78.8582 66.8351 79.0555 66.702L79.1125 66.6636L79.1263 66.6566C79.3596 66.5014 79.5973 66.3432 79.7688 66.2114H79.7757C79.9224 66.0987 80.0546 65.9831 80.1546 65.8644C80.4729 65.486 80.7161 65.2266 80.9598 64.9666C81.3231 64.5791 81.6881 64.1898 81.9691 63.7998C85.9896 58.2082 90.0337 56.7962 91.0146 56.4537L91.0591 56.4386C91.7253 56.1673 92.8863 56.1169 93.8178 56.3923C94.3132 56.5385 94.7933 56.7728 95.1853 57.1093C95.7177 57.5664 96.0769 58.167 96.1403 58.9322C96.1964 59.6087 96 60.3478 95.4364 61.1289L94.3329 61.8324C93.8645 61.9206 92.5899 64.399 90.5263 66.8758C88.8664 68.8681 87.2914 70.7583 86.7712 71.3317L84.1641 68.9592L84.164 68.9591ZM92.6095 59.1645L92.6514 59.1243L92.5896 59.0799C92.5963 59.0952 92.6034 59.1303 92.6095 59.1645ZM68.4555 73.2322C68.4379 73.2462 68.4459 73.2405 68.4561 73.233L68.4555 73.2322ZM26.2284 71.3317C25.7081 70.7582 24.1328 68.8675 22.4726 66.875C20.4092 64.3984 19.1357 61.9207 18.6668 61.8324L17.5633 61.1289C16.9999 60.3478 16.8034 59.6087 16.8593 58.9322C16.9228 58.1669 17.2818 57.5663 17.8144 57.1093C18.2064 56.7728 18.6865 56.5385 19.1819 56.3922C20.1136 56.1169 21.2748 56.1673 21.9408 56.4388C21.9502 56.4418 21.9635 56.4462 21.985 56.4537C22.9658 56.7962 27.01 58.2079 31.0306 63.7998C31.3116 64.1898 31.6767 64.5793 32.0401 64.9669C32.2835 65.2266 32.5267 65.486 32.8451 65.8644C32.945 65.9831 33.0774 66.0987 33.224 66.2114H33.2309C33.4023 66.3432 33.6401 66.5015 33.8734 66.6566L33.8872 66.6635L33.944 66.7019C34.1413 66.835 34.2805 66.9775 34.3214 66.9808L34.3212 66.9827C38.5323 67.2635 41.4303 67.9883 43.3258 68.6814C45.3721 69.4298 46.3625 70.1816 46.5851 70.3546L46.5825 70.3579C46.7449 70.4831 46.5091 70.2994 46.6676 70.4192C47.7798 71.2596 53.8735 75.8646 55.5966 83.5428L55.6104 83.5912C55.7084 84.0932 55.8457 85.0803 55.8683 86.0683C55.8837 86.7409 55.8429 87.4217 55.7003 87.9921C55.6835 88.1128 55.6579 88.2901 55.6179 88.5851C55.5321 89.2151 55.446 89.8468 55.4253 90.4191H55.4251L55.4153 95.2488L55.4117 97.0095L53.6565 97.0075L39.4718 96.9917L37.7062 96.9897V89.9028C37.7062 88.4149 36.0646 87.0486 35.5812 86.6538C34.1676 85.837 22.1893 78.8848 20.4139 76.7749H20.407C19.47 75.659 17.5073 71.8007 15.7751 67.9841C14.0048 64.0839 12.4292 60.0862 12.366 58.9142L12.3591 58.8245V56.0067L12.366 55.9515C12.4826 52.3931 12.909 48.0903 12.9518 47.6641L12.9483 47.6638C13.0055 46.9635 13.0971 46.0351 13.2371 45.1478C13.4085 44.0605 13.6959 43.0744 14.1742 42.5654L14.1739 42.565C14.6009 42.1129 15.0586 41.8451 15.6014 41.7296C16.1215 41.6191 16.6122 41.6703 17.1383 41.8512L17.1521 41.8581C18.6199 42.3762 19.4566 43.4764 19.9707 45.0125C20.3705 46.2071 20.5501 47.6328 20.7262 49.2585C20.7446 49.4291 20.8078 50.0465 20.8827 50.7797C21.0583 52.498 21.3092 54.9507 21.3122 54.9612L17.9327 55.9406C17.8355 55.6041 17.5671 52.9782 17.379 51.1383C17.3178 50.54 17.2666 50.0383 17.2225 49.631C17.0708 48.2306 16.9219 47.0173 16.6449 46.1674C16.5705 46.7461 16.5102 47.3966 16.4659 47.9398L16.4589 47.9743C16.4577 47.9872 16.0059 52.4227 15.8855 56.0066H15.8904V58.804C16.0053 59.6565 17.408 63.0525 18.989 66.5356C20.6123 70.1121 22.3794 73.6418 23.1106 74.5125L23.1067 74.5158C24.5988 76.2797 37.4341 83.6636 37.4711 83.6849L37.7124 83.8504L37.7761 83.9025L37.7766 83.9018C38.4979 84.4903 41.2376 86.7259 41.2376 89.9027V93.4761L51.9014 93.488L51.9078 90.3569V90.2948C51.9356 89.5291 52.032 88.8217 52.1281 88.1161C52.1347 88.0665 52.1407 88.0238 52.213 87.4418L52.2751 87.1522C52.3431 86.9244 52.3602 86.5465 52.3509 86.1372C52.3346 85.426 52.2261 84.6659 52.1482 84.267L52.1505 84.2666C50.6959 77.883 45.4948 73.952 44.5434 73.2331C44.4682 73.1763 44.65 73.3132 44.4264 73.1408H44.4195C44.2761 73.0294 43.6338 72.5434 42.1257 71.992C40.4709 71.3868 37.9004 70.7513 34.0732 70.4983H34.0456C33.1576 70.4265 32.5312 70.0037 31.9715 69.6262L31.9147 69.5879L31.9158 69.5863C31.6521 69.4109 31.3827 69.2311 31.0791 68.9976L31.0817 68.9943C30.7497 68.7388 30.4333 68.4569 30.1553 68.1266C29.994 67.9349 29.7345 67.6581 29.4745 67.3808C29.0437 66.9212 28.6108 66.4596 28.1753 65.8551C25.0967 61.5734 22.1598 60.2701 21.082 59.8697C22.233 61.0941 23.7349 62.8966 25.1763 64.6265C26.7434 66.5073 28.2304 68.292 28.8357 68.9592L26.2286 71.3317H26.2284ZM20.3483 59.1243L20.39 59.1645C20.3961 59.1303 20.4033 59.0953 20.4099 59.08L20.3483 59.1243ZM43.6986 24.2854C46.6599 24.2854 49.341 25.4858 51.2818 27.4265C53.2225 29.3673 54.423 32.0484 54.423 35.0097C54.423 37.971 53.2225 40.6522 51.2818 42.5929C49.341 44.5338 46.6599 45.7342 43.6986 45.7342C40.7373 45.7342 38.0562 44.5338 36.1154 42.5929C34.1746 40.6522 32.9742 37.971 32.9742 35.0097C32.9742 32.0484 34.1746 29.3673 36.1154 27.4265C38.0561 25.4858 40.7373 24.2854 43.6986 24.2854ZM49.5089 29.1994C48.0221 27.7125 45.9678 26.7928 43.6986 26.7928C41.4294 26.7928 39.3751 27.7125 37.8883 29.1994C36.4014 30.6863 35.4817 32.7406 35.4817 35.0097C35.4817 37.2789 36.4014 39.3332 37.8883 40.82C39.3751 42.307 41.4294 43.2266 43.6986 43.2266C45.9678 43.2266 48.0221 42.307 49.5089 40.82C50.9957 39.3333 51.9155 37.2789 51.9155 35.0097C51.9155 32.7406 50.9957 30.6863 49.5089 29.1994ZM65.1973 14.5989C68.1586 14.5989 70.8398 15.7993 72.7805 17.7401C74.7214 19.6808 75.9217 22.362 75.9217 25.3233C75.9217 28.2845 74.7214 30.9657 72.7805 32.9065C70.8398 34.8472 68.1587 36.0477 65.1973 36.0477C62.2362 36.0477 59.555 34.8472 57.6141 32.9065C55.6734 30.9658 54.473 28.2845 54.473 25.3233C54.473 22.362 55.6734 19.6809 57.6141 17.7401C59.5549 15.7993 62.2362 14.5989 65.1973 14.5989ZM71.0077 19.5129C69.5208 18.0261 67.4666 17.1064 65.1973 17.1064C62.9282 17.1064 60.8739 18.0261 59.3871 19.5129C57.9002 20.9998 56.9805 23.0541 56.9805 25.3233C56.9805 27.5924 57.9003 29.6467 59.3871 31.1336C60.8739 32.6204 62.9282 33.5401 65.1973 33.5401C67.4666 33.5401 69.5209 32.6204 71.0077 31.1336C72.4946 29.6467 73.4142 27.5924 73.4142 25.3233C73.4142 23.0541 72.4946 20.9998 71.0077 19.5129Z" fill="#3F3F46"/>
<path d="M55.5417 38.0764C60.2154 38.0764 64.4468 39.9709 67.5097 43.0339C70.5726 46.0968 72.4672 50.3283 72.4672 55.0019C72.4672 59.6756 70.5726 63.907 67.5097 66.9699C64.4468 70.0328 60.2154 71.9274 55.5417 71.9274C50.868 71.9274 46.6366 70.0329 43.5736 66.9698C40.5107 63.907 38.6162 59.6756 38.6162 55.0019C38.6162 51.9606 39.4186 49.1069 40.823 46.6403C41.6997 46.8563 42.6144 46.9758 43.5552 46.9869C42.0196 49.2788 41.1238 52.0358 41.1238 55.0019C41.1238 58.9835 42.7375 62.588 45.3466 65.1971C47.9555 67.8061 51.5602 69.4198 55.5417 69.4198C59.5233 69.4198 63.1278 67.8061 65.7369 65.1971C68.3459 62.5881 69.9596 58.9835 69.9596 55.0019C69.9596 51.0204 68.3459 47.4157 65.7369 44.8068C63.1278 42.1978 59.5233 40.584 55.5417 40.584C55.1145 40.584 54.6917 40.6026 54.274 40.6391C54.7072 39.8273 55.0447 38.9681 55.2799 38.0787C55.3671 38.0773 55.4542 38.0765 55.5417 38.0765V38.0764Z" fill="#3F3F46"/>
<path d="M52.3215 52.7072C52.325 53.2918 52.4075 53.8075 52.5658 54.2511C52.7273 54.6946 52.9371 55.0866 53.2018 55.427C53.4598 55.7639 53.75 56.0748 54.0683 56.3554C54.3812 56.6305 54.6976 56.8953 55.0104 57.1497C55.3268 57.4042 55.6156 57.6655 55.8769 57.9371C56.1418 58.2053 56.3515 58.5045 56.513 58.8277C56.6713 59.1543 56.7538 59.5291 56.7572 59.9486C56.7572 60.2891 56.7091 60.5642 56.6128 60.7705C56.5165 60.9767 56.3824 61.1246 56.2071 61.2174C56.0317 61.3068 55.822 61.3549 55.5813 61.3515C55.3405 61.3549 55.1308 61.3103 54.9555 61.2174C54.7801 61.1246 54.6459 60.9767 54.5497 60.7705C54.4534 60.5641 54.4053 60.2925 54.4053 59.9486V58.8139H52.2596V59.8042C52.2596 60.7876 52.4659 61.5853 52.8751 62.1906C53.2878 62.7957 53.8998 63.1842 54.7146 63.3528V64.4049H56.5715V63.3528C57.3795 63.1842 57.9882 62.7957 58.4042 62.1905C58.8168 61.5853 59.0266 60.7876 59.0266 59.8042C59.0231 59.2196 58.9405 58.7039 58.7824 58.2604C58.6207 57.8167 58.4111 57.4248 58.1463 57.0844C57.8883 56.7475 57.5981 56.4366 57.2798 56.156C56.9669 55.881 56.6506 55.6127 56.3377 55.3617C56.0213 55.1073 55.7325 54.846 55.4711 54.5743C55.2133 54.3138 54.9996 54.013 54.8385 53.6837C54.6768 53.3571 54.5943 52.9822 54.5909 52.5628C54.5943 52.0505 54.6906 51.686 54.8867 51.4625C55.0826 51.2424 55.3612 51.1324 55.7256 51.1393C56.0901 51.1324 56.3686 51.2424 56.5646 51.4625C56.7606 51.686 56.8569 52.0505 56.8604 52.5628V53.1611H59.0059V52.7072C59.0059 51.7238 58.7996 50.9295 58.3939 50.3312C57.9847 49.7329 57.3761 49.3478 56.5714 49.1793V48.1065H54.7147V49.1793C53.9204 49.3581 53.3221 49.7467 52.9232 50.3484C52.521 50.9468 52.3215 51.7341 52.3215 52.7072ZM64.7983 30.2682H66.1325V27.4543L67.8181 21.7781H66.5447L65.5261 25.6472L64.507 21.7781H63.1122L64.7983 27.4543V30.2682Z" fill="#3F3F46"/>
<path fill-rule="evenodd" clip-rule="evenodd" d="M62.5887 27.022H68.294V27.781H62.5887V27.022ZM62.5887 28.3152H68.294V29.0743H62.5887V28.3152Z" fill="#3F3F46"/>
<path d="M45.4046 36.7831C45.183 36.8985 44.6863 37.0579 44.204 37.0579C43.6749 37.0579 43.1787 36.8985 42.8418 36.5196C42.6828 36.34 42.5669 36.0975 42.493 35.7807H45.1417V35.0308H42.3452V34.8622C42.3452 34.7463 42.3452 34.6405 42.3545 34.5341H45.1417V33.7859H42.5137C42.5899 33.5115 42.694 33.2686 42.8535 33.1002C43.1787 32.71 43.6455 32.5297 44.1391 32.5297C44.6037 32.5297 45.0471 32.6688 45.3213 32.7839L45.6169 31.5811C45.2361 31.4127 44.6681 31.2649 44.0334 31.2649C43.0309 31.2649 42.1863 31.6644 41.5975 32.3525C41.26 32.731 40.9947 33.2178 40.8674 33.7859H40.1611V34.5341H40.7522C40.7522 34.6405 40.7404 34.7463 40.7404 34.8528V35.0308H40.1611V35.7807H40.847C40.9435 36.34 41.1542 36.7946 41.4381 37.1526C42.029 37.9329 42.9688 38.3556 44.0126 38.3556C44.6889 38.3556 45.3006 38.1545 45.6588 37.9558L45.4046 36.7831Z" fill="#3F3F46"/>
</svg>
