<svg width="84" height="84" viewBox="0 0 84 84" fill="none" xmlns="http://www.w3.org/2000/svg">
<path d="M41.9995 65.9998C40.0219 65.9997 38.0887 65.4132 36.4443 64.3145C34.7998 63.2156 33.5181 61.6539 32.7612 59.8266C32.0043 57.9993 31.8063 55.9887 32.1922 54.0489C32.578 52.109 33.5304 50.3272 34.9289 48.9287C36.3275 47.5302 38.1093 46.5778 40.0491 46.1919C41.9889 45.8061 43.9996 46.0041 45.8268 46.761C47.6541 47.5178 49.2159 48.7996 50.3147 50.4441C51.4134 52.0884 51.9999 54.0216 52 55.9993C51.9974 58.6507 50.9429 61.1929 49.068 63.0678C47.1931 64.9426 44.651 65.9971 41.9995 65.9998ZM42 48.4998C40.5166 48.4998 39.0666 48.9396 37.8332 49.7637C36.5999 50.5879 35.6386 51.7592 35.0709 53.1296C34.5033 54.5001 34.3547 56.0081 34.6441 57.4629C34.9335 58.9178 35.6478 60.2542 36.6967 61.3031C37.7456 62.352 39.082 63.0663 40.5368 63.3557C41.9917 63.645 43.4997 63.4965 44.8701 62.9289C46.2406 62.3612 47.4119 61.3999 48.236 60.1665C49.0601 58.9332 49.5 57.4831 49.5 55.9998C49.5 54.0106 48.7098 52.103 47.3033 50.6965C45.8968 49.2899 43.9891 48.4998 42 48.4998Z" fill="#3F3F46" stroke="#3F3F46"/>
<path d="M31.0001 80.5V81H31.5001H52.5001H53.0001V80.5V71.75C53.0001 70.225 52.3943 68.7625 51.316 67.6841C50.2377 66.6058 48.7751 66 47.2501 66H36.7501C35.2251 66 33.7626 66.6058 32.6843 67.6841C31.6059 68.7625 31.0001 70.225 31.0001 71.75V80.5ZM54.2501 83.5H29.7501C29.4186 83.5 29.1007 83.3683 28.8662 83.1339C28.6318 82.8995 28.5001 82.5815 28.5001 82.25V71.7503C28.5028 69.563 29.3729 67.4661 30.9196 65.9194C32.4663 64.3727 34.5633 63.5026 36.7507 63.5H47.2495C49.4369 63.5026 51.534 64.3727 53.0807 65.9194C54.6274 67.4662 55.4975 69.5632 55.5001 71.7506V82.25C55.5001 82.5815 55.3684 82.8995 55.134 83.1339C54.8996 83.3683 54.5816 83.5 54.2501 83.5ZM69.9996 57.25C68.022 57.2499 66.0888 56.6634 64.4444 55.5647C62.7999 54.4659 61.5182 52.9041 60.7613 51.0768C60.0044 49.2496 59.8064 47.2389 60.1923 45.2991C60.5781 43.3593 61.5305 41.5775 62.9291 40.1789C64.3276 38.7804 66.1094 37.828 68.0492 37.4422C69.989 37.0563 71.9997 37.2543 73.827 38.0112C75.6542 38.7681 77.216 40.0498 78.3148 41.6943C79.4135 43.3387 80 45.2719 80.0001 47.2495C79.9975 49.901 78.943 52.4431 77.0681 54.318C75.1932 56.1929 72.6511 57.2474 69.9996 57.25ZM70.0001 39.75C68.5168 39.75 67.0667 40.1899 65.8333 41.014C64.6 41.8381 63.6387 43.0094 63.071 44.3799C62.5034 45.7503 62.3548 47.2583 62.6442 48.7132C62.9336 50.168 63.6479 51.5044 64.6968 52.5533C65.7457 53.6022 67.0821 54.3165 68.5369 54.6059C69.9918 54.8953 71.4998 54.7468 72.8703 54.1791C74.2407 53.6114 75.412 52.6501 76.2361 51.4168C77.0603 50.1834 77.5001 48.7334 77.5001 47.25C77.5001 45.2609 76.7099 43.3532 75.3034 41.9467C73.8969 40.5402 71.9892 39.75 70.0001 39.75Z" fill="#3F3F46" stroke="#3F3F46"/>
<path d="M82.2499 74.75H59.9999V72.25H80.4999H80.9999V71.75V63C80.9999 61.475 80.3941 60.0125 79.3157 58.9341C78.2374 57.8558 76.7749 57.25 75.2499 57.25H64.7499C63.2249 57.25 61.7624 57.8558 60.684 58.9341C59.7242 59.894 59.1387 61.1582 59.0216 62.5H56.5156C56.6397 60.4953 57.491 58.5977 58.9193 57.1694C60.466 55.6227 62.5631 54.7526 64.7505 54.75H75.2493C77.4367 54.7526 79.5337 55.6227 81.0804 57.1694C82.6272 58.7162 83.4973 60.8132 83.4999 63.0006V73.5C83.4999 73.8315 83.3682 74.1495 83.1338 74.3839C82.8993 74.6183 82.5814 74.75 82.2499 74.75ZM13.9994 57.25C12.0217 57.2499 10.0885 56.6634 8.44418 55.5647C6.79969 54.4659 5.51796 52.9041 4.76109 51.0768C4.00421 49.2496 3.80618 47.2389 4.19203 45.2991C4.57788 43.3593 5.53029 41.5775 6.92881 40.1789C8.32734 38.7804 10.1092 37.828 12.049 37.4422C13.9888 37.0563 15.9995 37.2543 17.8267 38.0112C19.654 38.7681 21.2158 40.0498 22.3146 41.6943C23.4133 43.3387 23.9998 45.2719 23.9999 47.2495C23.9972 49.901 22.9428 52.4431 21.0679 54.318C19.193 56.1929 16.6509 57.2474 13.9994 57.25ZM13.9999 39.75C12.5165 39.75 11.0665 40.1899 9.83311 41.014C8.59974 41.8381 7.63844 43.0094 7.07079 44.3799C6.50313 45.7503 6.3546 47.2583 6.64399 48.7132C6.93338 50.168 7.64769 51.5044 8.69658 52.5533C9.74547 53.6022 11.0818 54.3165 12.5367 54.6059C13.9916 54.8953 15.4996 54.7468 16.87 54.1791C18.2405 53.6114 19.4118 52.6501 20.2359 51.4168C21.06 50.1834 21.4999 48.7334 21.4999 47.25C21.4999 45.2609 20.7097 43.3532 19.3032 41.9467C17.8967 40.5402 15.989 39.75 13.9999 39.75Z" fill="#3F3F46" stroke="#3F3F46"/>
<path d="M3.5 72.25H24V74.75H1.75C1.41848 74.75 1.10053 74.6183 0.866115 74.3839C0.631695 74.1495 0.5 73.8315 0.5 73.5V63.0003C0.502698 60.813 1.37279 58.7161 2.91944 57.1694C4.46616 55.6227 6.56321 54.7526 8.7506 54.75H19.2494C21.4368 54.7526 23.5338 55.6227 25.0806 57.1694C26.5089 58.5977 27.3602 60.4953 27.4842 62.5H24.9782C24.8612 61.1582 24.2757 59.894 23.3159 58.9341C22.2375 57.8558 20.775 57.25 19.25 57.25H8.75C7.225 57.25 5.76247 57.8558 4.68414 58.9341C3.6058 60.0125 3 61.475 3 63V71.75V72.25H3.5ZM33.2516 41.5H33.2501C32.9186 41.4999 32.6007 41.3682 32.3664 41.1337L32.3663 41.1337L22.3791 31.1464L22.2326 31H22.0255H5.25C3.99022 31 2.78204 30.4996 1.89124 29.6088C1.00045 28.718 0.5 27.5098 0.5 26.25V5.25C0.5 3.99022 1.00044 2.78204 1.89124 1.89124C2.78204 1.00044 3.99022 0.5 5.25 0.5H43.75C45.0098 0.5 46.218 1.00045 47.1088 1.89124C47.9996 2.78204 48.5 3.99022 48.5 5.25V26.25C48.5 27.5098 47.9996 28.718 47.1088 29.6088C46.218 30.4996 45.0098 31 43.75 31H35H34.5V31.5V40.25V40.2501C34.5001 40.4973 34.4268 40.739 34.2895 40.9446C34.1523 41.1502 33.9571 41.3104 33.7287 41.4051L33.7278 41.4055C33.577 41.4684 33.4151 41.5005 33.2516 41.5ZM23.6336 28.8662L23.6337 28.8663L31.1464 36.3791L32 37.2326V36.0255V29.75C32 29.4185 32.1317 29.1005 32.3661 28.8661C32.6005 28.6317 32.9185 28.5 33.25 28.5H43.75C44.3467 28.5 44.919 28.2629 45.341 27.841C45.763 27.419 46 26.8467 46 26.25V5.25C46 4.65326 45.763 4.08097 45.341 3.65901C44.919 3.23705 44.3467 3 43.75 3H5.25C4.65326 3 4.08097 3.23705 3.65901 3.65901C3.23705 4.08097 3 4.65326 3 5.25V26.25C3 26.8467 3.23705 27.419 3.65901 27.841C4.08097 28.2629 4.65326 28.5 5.25 28.5H22.7499C22.7499 28.5 22.75 28.5 22.75 28.5C23.0815 28.5001 23.3993 28.6318 23.6336 28.8662ZM58.25 26.25V25.75H57.75H53V23.25H59.5C59.8315 23.25 60.1495 23.3817 60.3839 23.6161C60.6183 23.8505 60.75 24.1685 60.75 24.5V26.25V27.75L61.65 26.55L63.75 23.75C63.8664 23.5948 64.0174 23.4688 64.191 23.382C64.3646 23.2952 64.5559 23.25 64.75 23.25H78.75C79.3467 23.25 79.919 23.0129 80.341 22.591C80.763 22.169 81 21.5967 81 21V14C81 13.4033 80.763 12.831 80.341 12.409C79.919 11.9871 79.3467 11.75 78.75 11.75H53V9.25H78.75C80.0098 9.25 81.218 9.75044 82.1088 10.6412C82.9996 11.532 83.5 12.7402 83.5 14V21C83.5 22.2598 82.9996 23.468 82.1088 24.3588C81.218 25.2496 80.0098 25.75 78.75 25.75H65.625H65.375L65.225 25.95L60.5 32.25C60.3836 32.4052 60.2326 32.5312 60.059 32.618C59.8854 32.7048 59.6941 32.75 59.5 32.75C59.1685 32.75 58.8505 32.6183 58.6161 32.3839C58.3817 32.1495 58.25 31.8315 58.25 31.5V26.25Z" fill="#3F3F46" stroke="#3F3F46"/>
<path d="M26.0911 14.159L25.7517 14.4984L26.0911 14.159C25.6692 13.7371 25.0969 13.5 24.5001 13.5C24.0551 13.5 23.6201 13.632 23.2501 13.8792L23.5189 14.2815L23.2501 13.8792C22.8801 14.1264 22.5917 14.4778 22.4214 14.889C22.2511 15.3001 22.2065 15.7525 22.2934 16.189C22.3802 16.6254 22.5945 17.0263 22.9091 17.341C23.2238 17.6557 23.6247 17.87 24.0612 17.9568C24.4976 18.0436 24.95 17.999 25.3612 17.8287C25.7723 17.6584 26.1237 17.37 26.3709 17C26.6182 16.63 26.7501 16.195 26.7501 15.75C26.7501 15.1533 26.5131 14.581 26.0911 14.159ZM35.5001 13.8792L35.7689 14.2815L35.5001 13.8792C35.1301 14.1264 34.8417 14.4778 34.6714 14.889L35.1333 15.0803L34.6714 14.889C34.5011 15.3001 34.4565 15.7525 34.5434 16.189C34.6302 16.6254 34.8445 17.0263 35.1591 17.341C35.4738 17.6557 35.8747 17.87 36.3112 17.9568C36.7476 18.0436 37.2 17.999 37.6112 17.8287C38.0223 17.6584 38.3737 17.37 38.6209 17C38.8682 16.63 39.0001 16.195 39.0001 15.75C39.0001 15.1533 38.7631 14.581 38.3411 14.159L38.0017 14.4984L38.3411 14.159C37.9192 13.7371 37.3469 13.5 36.7501 13.5C36.3051 13.5 35.8701 13.632 35.5001 13.8792ZM60.0001 16.25H76.5001V18.75H60.0001V16.25ZM53.0001 16.25H55.5001V18.75H53.0001V16.25ZM12.2501 20.5C11.3107 20.5 10.3923 20.2214 9.61116 19.6995C8.83003 19.1775 8.22121 18.4357 7.8617 17.5677C7.50218 16.6998 7.40811 15.7447 7.59139 14.8233C7.77467 13.9019 8.22707 13.0555 8.89137 12.3912C9.55567 11.7269 10.402 11.2746 11.3234 11.0913C12.2449 10.908 13.1999 11.0021 14.0679 11.3616C14.9358 11.7211 15.6777 12.3299 16.1996 13.111C16.7215 13.8922 17.0001 14.8105 17.0001 15.75C17.0001 17.0098 16.4997 18.218 15.6089 19.1088C14.7181 19.9996 13.5099 20.5 12.2501 20.5ZM12.2501 13.5C11.8051 13.5 11.3701 13.632 11.0001 13.8792C10.6301 14.1264 10.3417 14.4778 10.1714 14.889C10.0011 15.3001 9.95654 15.7525 10.0434 16.189C10.1302 16.6254 10.3445 17.0263 10.6591 17.341C10.9738 17.6557 11.3747 17.87 11.8112 17.9568C12.2476 18.0436 12.7 17.999 13.1112 17.8287C13.5223 17.6584 13.8737 17.37 14.1209 17C14.3682 16.63 14.5001 16.195 14.5001 15.75C14.5001 15.1533 14.2631 14.581 13.8411 14.159C13.4192 13.7371 12.8469 13.5 12.2501 13.5ZM24.5001 20.5C23.5607 20.5 22.6423 20.2214 21.8612 19.6995C21.08 19.1775 20.4712 18.4357 20.1117 17.5677C19.7522 16.6998 19.6581 15.7447 19.8414 14.8233C20.0247 13.9019 20.4771 13.0555 21.1414 12.3912C21.8057 11.7269 22.652 11.2746 23.5734 11.0913C24.4949 10.908 25.4499 11.0021 26.3179 11.3616C27.1858 11.7211 27.9277 12.3299 28.4496 13.111C28.9715 13.8922 29.2501 14.8105 29.2501 15.75C29.2501 17.0098 28.7497 18.218 27.8589 19.1088C26.9681 19.9996 25.7599 20.5 24.5001 20.5ZM36.7501 20.5C35.8107 20.5 34.8923 20.2214 34.1112 19.6995C33.33 19.1775 32.7212 18.4357 32.3617 17.5677C32.0022 16.6998 31.9081 15.7447 32.0914 14.8233C32.2747 13.9019 32.7271 13.0555 33.3914 12.3912C34.0557 11.7269 34.902 11.2746 35.8234 11.0913C36.7449 10.908 37.6999 11.0021 38.5679 11.3616C39.4358 11.7211 40.1777 12.3299 40.6996 13.111C41.2215 13.8922 41.5001 14.8105 41.5001 15.75C41.5001 17.0098 40.9997 18.218 40.1089 19.1088C39.2181 19.9996 38.0099 20.5 36.7501 20.5Z" fill="#3F3F46" stroke="#3F3F46"/>
</svg>
