<svg width="79" height="79" viewBox="0 0 79 79" fill="none" xmlns="http://www.w3.org/2000/svg">
<path d="M8.72136 53.0575L7.79844 52.1956C5.72448 50.2526 3.6335 48.3278 1.52574 46.4215L1 45.9476L1.15875 45.2565C2.28448 40.3673 4.7804 35.9084 8.37731 32.361C13.4621 27.3462 20.2231 24.5847 27.4151 24.5847C28.3857 24.5847 29.3672 24.6366 30.3324 24.7398L32.5995 24.9819L8.72136 53.0575ZM3.6758 45.1153C5.30111 46.5902 6.91641 48.0761 8.52157 49.5729L27.7218 26.9967C21.0724 26.934 14.7737 29.4389 10.0704 34.0765C6.96848 37.1368 4.76652 40.9407 3.6758 45.1153ZM33.4923 77.9999L33.0214 77.4916C30.8578 75.1608 28.6706 72.8518 26.4602 70.5652L25.5566 69.629L54.4628 45.7038L54.7942 47.7905C56.1234 56.1716 53.2967 64.747 47.2304 70.7312C43.6298 74.2809 39.1038 76.7467 34.1689 77.8471L33.4923 77.9999ZM29.0968 69.8288C30.8492 71.6507 32.5869 73.4867 34.3095 75.3367C38.5479 74.2667 42.4239 72.0849 45.5373 69.0163C50.5297 64.0909 53.1083 57.2339 52.6544 50.3292L29.0968 69.8288Z" fill="#3F3F46" stroke="#282D33" stroke-width="0.5"/>
<path d="M34.8208 64.3681L14.044 43.8725L38.4087 15.224C46.0956 6.185 57.3746 1 69.3533 1C71.79 1 74.2401 1.21851 76.6328 1.64948L77.4525 1.79737L77.604 2.61646C80.214 16.7071 74.9391 31.1672 63.8375 40.3547L34.8208 64.3681ZM17.3306 43.7289L34.9627 61.1212L62.3007 38.498C72.5119 30.0475 77.4766 16.8502 75.3773 3.88223C73.3848 3.56862 71.3709 3.411 69.3539 3.41081C58.0833 3.41081 47.4737 8.28616 40.2448 16.7862L17.3306 43.7289ZM3.97641 75.5022H3.16757L2.85913 74.7525C2.7553 74.499 2.53861 73.9709 4.8625 67.4465C6.4838 62.8946 7.88658 60.0142 9.03344 58.8837C10.4363 57.4959 12.332 56.7206 14.3054 56.7276C16.2961 56.7276 18.1685 57.4942 19.5773 58.8837C20.9915 60.2774 21.7708 62.1341 21.7708 64.1085C21.7708 66.0829 20.9915 67.939 19.5773 69.3321C17.1296 71.7478 6.82604 74.7459 4.60476 75.3706L4.47499 75.5004L3.97641 75.5022ZM14.3054 59.1372C12.9659 59.1321 11.6789 59.6577 10.726 60.5991C9.18253 62.1208 6.78319 69.0508 5.70756 72.5415C10.3463 71.1502 16.4874 68.9953 17.8848 67.6161C18.3525 67.1596 18.724 66.614 18.9774 66.0116C19.2307 65.4092 19.3608 64.7621 19.36 64.1085C19.36 62.7836 18.836 61.5371 17.8848 60.5997C16.9319 59.6581 15.6449 59.1323 14.3054 59.1372Z" fill="#3F3F46" stroke="#282D33" stroke-width="0.5"/>
<path d="M75.7901 23.7507L74.3734 21.7063C72.0825 18.4091 69.4904 15.3317 66.6303 12.5139C63.7656 9.68612 60.6455 7.12921 57.31 4.87588L55.1931 3.44895L57.6402 2.72099C63.7946 0.890249 70.36 0.520237 76.6327 1.64959L77.4524 1.79747L77.6039 2.61657C78.7496 8.80899 78.3735 15.2948 76.5168 21.3725L75.7901 23.7507ZM60.7989 4.38394C66.1364 8.30125 70.8732 12.977 74.8593 18.2633C75.9627 13.5437 76.142 8.63153 75.376 3.88234C70.529 3.12569 65.5824 3.2959 60.7989 4.38394ZM56.4378 32.4427C53.7656 32.4427 51.2528 31.4153 49.3611 29.5502C47.4651 27.6808 46.4215 25.1933 46.4215 22.5465C46.4215 19.9003 47.4651 17.4128 49.3611 15.5428C51.251 13.6777 53.7638 12.6504 56.436 12.6504C59.1088 12.6504 61.6222 13.6777 63.5127 15.5428C65.4086 17.4128 66.4523 19.8997 66.4523 22.5459C66.4523 25.1927 65.4086 27.6802 63.5127 29.5502C61.6228 31.4153 59.11 32.4427 56.4378 32.4427ZM56.436 15.0612C54.4018 15.0612 52.4902 15.8416 51.0542 17.2589C49.6212 18.6726 48.8317 20.5504 48.8317 22.5465C48.8317 24.5433 49.6212 26.4211 51.0536 27.8341C52.4908 29.2514 54.4036 30.0325 56.4378 30.0325C58.4726 30.0325 60.3836 29.252 61.8202 27.8341C63.2531 26.4205 64.0421 24.5427 64.0421 22.5459C64.0421 20.5498 63.2525 18.672 61.8202 17.2589C60.383 15.8416 58.4707 15.0612 56.436 15.0612Z" fill="#3F3F46" stroke="#282D33" stroke-width="0.5"/>
<path d="M21.3259 36.0276L42.745 57.1581L41.0525 58.8736L19.6328 37.7436L21.3259 36.0276Z" fill="#3F3F46" stroke="#282D33" stroke-width="0.5"/>
</svg>
