<svg width="82" height="81" viewBox="0 0 82 81" fill="none" xmlns="http://www.w3.org/2000/svg">
<path d="M79.6109 80.0559H0V0H2.54428V77.511H79.6109V80.0559Z" fill="#3F3F46"/>
<path d="M8.26184 72.9607H10.8061V77.7331H8.26184V72.9607ZM19.089 72.9607H21.6333V77.7331H19.089V72.9607ZM29.9155 72.9607H32.4598V77.7331H29.9155V72.9607ZM40.7439 72.9607H43.2882V77.7331H40.7439V72.9607ZM51.5704 72.9607H54.1147V77.7331H51.5704V72.9607ZM62.3963 72.9607H64.9406V77.7331H62.3963V72.9607ZM73.2247 72.9607H75.7697V77.7331H73.2247V72.9607Z" fill="#3F3F46"/>
<path d="M1.10583 3.00195H5.84906V5.54623H1.10583V3.00195ZM1.10583 13.8888H5.84906V16.4331H1.10583V13.8888ZM1.10583 24.7781H5.84906V27.3224H1.10583V24.7781ZM1.10583 35.6662H5.84906V38.2105H1.10583V35.6662ZM1.10583 46.5543H5.84906V49.0992H1.10583V46.5543ZM1.10583 57.4424H5.84906V59.9873H1.10583V57.4424ZM1.10583 68.3311H5.84906V70.8761H1.10583V68.3311Z" fill="#3F3F46"/>
<path d="M48.8891 50.0463L38.7939 39.8939L35.4555 43.252L33.6508 41.4581L38.7933 36.2844L48.8891 46.4374L79.0802 16.075L80.8843 17.8689L48.8891 50.0463Z" fill="#3F3F46"/>
<path d="M26.8863 48.2629L28.6904 50.0569L9.81021 69.0412L8.0061 67.2473L26.8863 48.2629Z" fill="#3F3F46"/>
<path d="M81.2543 29.9684H78.7094V18.2442H67.0602V15.7H81.2543V29.9684Z" fill="#3F3F46"/>
<path d="M81.2543 49.4598H78.7094V37.7375H67.0602V35.1926H81.2543V49.4598Z" fill="#3F3F46"/>
<path d="M50.9085 67.5084L22.0352 38.472L11.4283 49.1392L9.62488 47.3446L22.0352 34.8638L50.9085 63.8995L79.0803 35.5684L80.8844 37.3617L50.9085 67.5084Z" fill="#3F3F46"/>
</svg>
