<svg width="103" height="75" viewBox="0 0 103 75" fill="none" xmlns="http://www.w3.org/2000/svg">
<mask id="path-1-inside-1_121_236" fill="white">
<path d="M93.4004 0.00100111H9.5895C4.30522 0.00100111 0 4.26074 0 9.49942V58.3064C0 61.5986 1.74085 64.6456 4.53219 66.3681C4.48046 66.6333 4.41867 66.9084 4.37772 67.1836C4.01706 69.1813 4.52214 71.0566 5.84053 72.6255C7.15893 74.1746 8.94065 75 10.9905 75H33.7536C35.8035 75 37.5852 74.1746 38.9036 72.6255C40.0776 71.2293 40.6028 69.5786 40.4382 67.8147H93.4006C98.695 67.8147 103 63.555 103 58.3163L102.999 9.49841C102.999 4.25974 98.6942 0 93.3998 0L93.4004 0.00100111ZM36.421 70.5671C35.7306 71.3825 34.8246 71.8005 33.7432 71.8005H10.9802C9.89889 71.8005 8.9921 71.3825 8.30237 70.5671C7.60185 69.7417 7.34465 68.7834 7.54007 67.7342C7.65359 67.1128 7.77718 66.5114 7.93164 65.9199C7.93164 65.8993 7.9417 65.8894 7.9417 65.8687C10.115 57.0634 15.862 51.0705 22.3614 51.0705C29.314 51.0705 35.401 57.9195 37.1834 67.7336C37.3789 68.7943 37.1217 69.7419 36.4212 70.5673L36.421 70.5671ZM99.7772 58.3068C99.7772 61.7825 96.9141 64.6154 93.4015 64.6154H39.7899C37.1531 54.6476 30.2523 47.8911 22.3619 47.8911C14.9049 47.8911 8.31285 53.9453 5.39813 63.0462C4.03878 61.864 3.22483 60.1522 3.22483 58.3073V9.49851C3.22483 6.0228 6.08786 3.18989 9.60054 3.18989H93.4114C96.9241 3.18989 99.7871 6.0228 99.7871 9.49851V58.3055L99.7772 58.3068ZM22.3615 27.2332C17.2424 27.2332 13.081 31.3508 13.081 36.4053C13.081 41.4705 17.2424 45.5881 22.3615 45.5881C27.4806 45.5881 31.642 41.4705 31.642 36.4053C31.642 31.3501 27.4806 27.2332 22.3615 27.2332ZM22.3615 42.4084C19.0241 42.4084 16.3047 39.7176 16.3047 36.4153C16.3047 33.113 19.0241 30.4223 22.3615 30.4223C25.6989 30.4223 28.4183 33.113 28.4183 36.4153C28.4183 39.7176 25.6989 42.4084 22.3615 42.4084ZM86.6134 52.4067C86.6134 53.2833 85.892 53.9963 85.0069 53.9963H47.6068C46.7209 53.9963 46.0003 53.2826 46.0003 52.4067C46.0003 51.5302 46.7216 50.8171 47.6068 50.8171H85.0069C85.8928 50.8064 86.6134 51.5195 86.6134 52.4067ZM50.9349 34.1127L52.305 34.5507L51.6454 35.8346C51.0894 36.9151 51.3056 38.209 52.1707 39.0657L55.9405 42.8058C56.8055 43.6618 58.1138 43.8658 59.216 43.3155L60.5036 42.6629L60.9461 44.0186C61.3269 45.1703 62.4089 45.9452 63.6346 45.9452H68.97C70.2058 45.9452 71.2879 45.1703 71.6478 44.0186L72.1012 42.6636L73.3988 43.3163C74.4908 43.8566 75.7985 43.6525 76.6642 42.8065L80.4441 39.0664C81.3092 38.2104 81.5154 36.9159 80.9593 35.8253L80.2997 34.5513L81.6799 34.1134C82.8438 33.7366 83.627 32.6767 83.627 31.4532V26.1739C83.627 24.9611 82.8439 23.8912 81.6799 23.5137L80.3098 23.0758L80.9694 21.8019C81.5254 20.7213 81.3092 19.4169 80.4441 18.5608L76.6642 14.8306C75.7992 13.9747 74.4909 13.7707 73.3988 14.3209L72.1012 14.9728L71.6586 13.6278C71.2879 12.4661 70.2167 11.6912 68.9808 11.6912H63.6454C62.4197 11.6912 61.3384 12.4661 60.9569 13.6177L60.5143 14.9734L59.2268 14.3208C58.1348 13.7706 56.8164 13.9846 55.9614 14.8405L52.1915 18.5707C51.3265 19.4266 51.1203 20.7211 51.6764 21.8118L52.3359 23.0857L50.9658 23.5236C49.8019 23.9004 49.0188 24.9711 49.0188 26.1838V31.4631C48.9879 32.6759 49.7709 33.7358 50.9349 34.1127ZM52.2015 26.469L53.7462 25.97C54.5394 25.7254 55.1473 25.1645 55.4763 24.4003C55.4763 24.3903 55.4864 24.3903 55.4864 24.3797C55.8054 23.6154 55.7644 22.79 55.3937 22.0556L54.6522 20.6188L58.0104 17.296L59.4624 18.0297C60.2039 18.4064 61.038 18.437 61.8112 18.1214C61.8213 18.1214 61.8213 18.1114 61.832 18.1114C62.6152 17.7851 63.1813 17.1737 63.4184 16.3996L63.9228 14.8711H68.6812L69.1856 16.3996C69.4428 17.1844 70.0097 17.7858 70.8029 18.1114C71.5752 18.4271 72.4094 18.3865 73.1517 18.0197L74.5936 17.2861L77.9617 20.6089L77.2203 22.0456C76.8395 22.79 76.8086 23.6153 77.1276 24.3795C77.4466 25.1544 78.0652 25.7146 78.8684 25.9592L80.4031 26.4483V31.1566L78.8584 31.6457C78.0652 31.9002 77.4473 32.4711 77.1283 33.2353C76.8093 33.9996 76.8402 34.8249 77.221 35.5692L77.9625 37.006L74.5944 40.3288L73.1524 39.5952C72.4002 39.2184 71.5559 39.1878 70.7836 39.5034C70.0112 39.8298 69.4443 40.4312 69.1871 41.2054L68.6828 42.7338H63.9243L63.43 41.2253C63.1829 40.4404 62.616 39.829 61.8336 39.5027C61.0612 39.1764 60.2163 39.207 59.4648 39.5944L58.0127 40.3281L54.6546 37.0053L55.396 35.5685C55.7768 34.8349 55.8077 34.0095 55.4887 33.2445C55.4887 33.2345 55.4786 33.2345 55.4786 33.2238C55.1488 32.4596 54.541 31.8987 53.7486 31.6442L52.2038 31.1551L52.2015 26.469ZM66.3023 37.823C71.3186 37.823 75.4075 33.7872 75.4075 28.8136C75.4075 23.8401 71.3287 19.8042 66.3023 19.8042C61.286 19.8042 57.197 23.8401 57.197 28.8136C57.197 33.7872 61.2858 37.823 66.3023 37.823ZM66.3023 22.9942C69.547 22.9942 72.1838 25.6033 72.1838 28.8138C72.1838 32.0244 69.547 34.6334 66.3023 34.6334C63.0576 34.6334 60.4208 32.0244 60.4208 28.8138C60.4208 25.6133 63.0576 22.9942 66.3023 22.9942Z"/>
</mask>
<path d="M93.4004 0.00100111H9.5895C4.30522 0.00100111 0 4.26074 0 9.49942V58.3064C0 61.5986 1.74085 64.6456 4.53219 66.3681C4.48046 66.6333 4.41867 66.9084 4.37772 67.1836C4.01706 69.1813 4.52214 71.0566 5.84053 72.6255C7.15893 74.1746 8.94065 75 10.9905 75H33.7536C35.8035 75 37.5852 74.1746 38.9036 72.6255C40.0776 71.2293 40.6028 69.5786 40.4382 67.8147H93.4006C98.695 67.8147 103 63.555 103 58.3163L102.999 9.49841C102.999 4.25974 98.6942 0 93.3998 0L93.4004 0.00100111ZM36.421 70.5671C35.7306 71.3825 34.8246 71.8005 33.7432 71.8005H10.9802C9.89889 71.8005 8.9921 71.3825 8.30237 70.5671C7.60185 69.7417 7.34465 68.7834 7.54007 67.7342C7.65359 67.1128 7.77718 66.5114 7.93164 65.9199C7.93164 65.8993 7.9417 65.8894 7.9417 65.8687C10.115 57.0634 15.862 51.0705 22.3614 51.0705C29.314 51.0705 35.401 57.9195 37.1834 67.7336C37.3789 68.7943 37.1217 69.7419 36.4212 70.5673L36.421 70.5671ZM99.7772 58.3068C99.7772 61.7825 96.9141 64.6154 93.4015 64.6154H39.7899C37.1531 54.6476 30.2523 47.8911 22.3619 47.8911C14.9049 47.8911 8.31285 53.9453 5.39813 63.0462C4.03878 61.864 3.22483 60.1522 3.22483 58.3073V9.49851C3.22483 6.0228 6.08786 3.18989 9.60054 3.18989H93.4114C96.9241 3.18989 99.7871 6.0228 99.7871 9.49851V58.3055L99.7772 58.3068ZM22.3615 27.2332C17.2424 27.2332 13.081 31.3508 13.081 36.4053C13.081 41.4705 17.2424 45.5881 22.3615 45.5881C27.4806 45.5881 31.642 41.4705 31.642 36.4053C31.642 31.3501 27.4806 27.2332 22.3615 27.2332ZM22.3615 42.4084C19.0241 42.4084 16.3047 39.7176 16.3047 36.4153C16.3047 33.113 19.0241 30.4223 22.3615 30.4223C25.6989 30.4223 28.4183 33.113 28.4183 36.4153C28.4183 39.7176 25.6989 42.4084 22.3615 42.4084ZM86.6134 52.4067C86.6134 53.2833 85.892 53.9963 85.0069 53.9963H47.6068C46.7209 53.9963 46.0003 53.2826 46.0003 52.4067C46.0003 51.5302 46.7216 50.8171 47.6068 50.8171H85.0069C85.8928 50.8064 86.6134 51.5195 86.6134 52.4067ZM50.9349 34.1127L52.305 34.5507L51.6454 35.8346C51.0894 36.9151 51.3056 38.209 52.1707 39.0657L55.9405 42.8058C56.8055 43.6618 58.1138 43.8658 59.216 43.3155L60.5036 42.6629L60.9461 44.0186C61.3269 45.1703 62.4089 45.9452 63.6346 45.9452H68.97C70.2058 45.9452 71.2879 45.1703 71.6478 44.0186L72.1012 42.6636L73.3988 43.3163C74.4908 43.8566 75.7985 43.6525 76.6642 42.8065L80.4441 39.0664C81.3092 38.2104 81.5154 36.9159 80.9593 35.8253L80.2997 34.5513L81.6799 34.1134C82.8438 33.7366 83.627 32.6767 83.627 31.4532V26.1739C83.627 24.9611 82.8439 23.8912 81.6799 23.5137L80.3098 23.0758L80.9694 21.8019C81.5254 20.7213 81.3092 19.4169 80.4441 18.5608L76.6642 14.8306C75.7992 13.9747 74.4909 13.7707 73.3988 14.3209L72.1012 14.9728L71.6586 13.6278C71.2879 12.4661 70.2167 11.6912 68.9808 11.6912H63.6454C62.4197 11.6912 61.3384 12.4661 60.9569 13.6177L60.5143 14.9734L59.2268 14.3208C58.1348 13.7706 56.8164 13.9846 55.9614 14.8405L52.1915 18.5707C51.3265 19.4266 51.1203 20.7211 51.6764 21.8118L52.3359 23.0857L50.9658 23.5236C49.8019 23.9004 49.0188 24.9711 49.0188 26.1838V31.4631C48.9879 32.6759 49.7709 33.7358 50.9349 34.1127ZM52.2015 26.469L53.7462 25.97C54.5394 25.7254 55.1473 25.1645 55.4763 24.4003C55.4763 24.3903 55.4864 24.3903 55.4864 24.3797C55.8054 23.6154 55.7644 22.79 55.3937 22.0556L54.6522 20.6188L58.0104 17.296L59.4624 18.0297C60.2039 18.4064 61.038 18.437 61.8112 18.1214C61.8213 18.1214 61.8213 18.1114 61.832 18.1114C62.6152 17.7851 63.1813 17.1737 63.4184 16.3996L63.9228 14.8711H68.6812L69.1856 16.3996C69.4428 17.1844 70.0097 17.7858 70.8029 18.1114C71.5752 18.4271 72.4094 18.3865 73.1517 18.0197L74.5936 17.2861L77.9617 20.6089L77.2203 22.0456C76.8395 22.79 76.8086 23.6153 77.1276 24.3795C77.4466 25.1544 78.0652 25.7146 78.8684 25.9592L80.4031 26.4483V31.1566L78.8584 31.6457C78.0652 31.9002 77.4473 32.4711 77.1283 33.2353C76.8093 33.9996 76.8402 34.8249 77.221 35.5692L77.9625 37.006L74.5944 40.3288L73.1524 39.5952C72.4002 39.2184 71.5559 39.1878 70.7836 39.5034C70.0112 39.8298 69.4443 40.4312 69.1871 41.2054L68.6828 42.7338H63.9243L63.43 41.2253C63.1829 40.4404 62.616 39.829 61.8336 39.5027C61.0612 39.1764 60.2163 39.207 59.4648 39.5944L58.0127 40.3281L54.6546 37.0053L55.396 35.5685C55.7768 34.8349 55.8077 34.0095 55.4887 33.2445C55.4887 33.2345 55.4786 33.2345 55.4786 33.2238C55.1488 32.4596 54.541 31.8987 53.7486 31.6442L52.2038 31.1551L52.2015 26.469ZM66.3023 37.823C71.3186 37.823 75.4075 33.7872 75.4075 28.8136C75.4075 23.8401 71.3287 19.8042 66.3023 19.8042C61.286 19.8042 57.197 23.8401 57.197 28.8136C57.197 33.7872 61.2858 37.823 66.3023 37.823ZM66.3023 22.9942C69.547 22.9942 72.1838 25.6033 72.1838 28.8138C72.1838 32.0244 69.547 34.6334 66.3023 34.6334C63.0576 34.6334 60.4208 32.0244 60.4208 28.8138C60.4208 25.6133 63.0576 22.9942 66.3023 22.9942Z" stroke="white" stroke-width="2.4" mask="url(#path-1-inside-1_121_236)"/>
</svg>
